<svg width="901" height="196" viewBox="0 0 901 196" fill="none" xmlns="http://www.w3.org/2000/svg">
<path d="M119.856 52.2939C106.994 52.2939 96.825 56.4621 89.3018 64.7316C81.8634 73.0072 79.1089 85.4813 79.1089 100.273C86.0012 99.1809 88.331 98.7562 96.0606 97.6398C96.0606 77.4362 103.978 66.6913 119.856 66.6913C135.819 66.6913 143.852 77.5758 143.852 99.3023C143.852 121.029 135.819 131.913 119.856 131.913C114.693 131.913 113.983 131.762 111.781 131.052L105.046 144.12C110.67 146.08 112.193 146.305 119.856 146.305C132.724 146.305 142.99 142.142 150.507 133.867C158.03 125.597 161.774 114.088 161.774 99.3023C161.774 84.5105 158.03 73.0072 150.507 64.7316C142.984 56.4621 132.73 52.2939 119.856 52.2939ZM188.002 79.8874L202.418 135.414H202.667L216.961 79.8874H234.38L213.327 145.067H191.139L170.08 79.8874H188.002ZM257.398 106.334H284.215C283.972 95.6378 279.786 90.2925 271.686 90.2925C267.257 90.2925 263.872 91.5424 261.53 94.0542C259.279 96.56 257.896 100.655 257.398 106.334ZM257.398 117.243C257.817 123.255 259.613 127.642 262.786 130.403C265.959 133.072 270.643 134.413 276.825 134.413C281.837 134.413 288.068 133.163 295.5 130.651V143.441C287.898 145.358 281 146.323 274.817 146.323C263.872 146.323 255.433 143.483 249.499 137.798C243.65 132.035 240.726 123.589 240.726 112.48C240.726 101.444 243.359 93.0471 248.619 87.2833C253.885 81.5195 261.494 78.6315 271.432 78.6315C290.482 78.6315 300.014 89.789 300.014 112.104C300.014 113.772 299.893 115.483 299.638 117.243H257.398ZM314.15 79.8874H330.823V92.4222H331.072C333.832 88.5756 337.551 85.5298 342.235 83.2728C347.054 81.0044 352.32 79.8474 357.646 79.8874H360.158V92.7983H357.646C349.043 92.7983 342.52 94.7641 338.091 98.6835C333.662 102.615 331.448 108.257 331.448 115.611V145.067H314.157V79.8874M392.653 53.562V87.4046H392.908C398.842 81.5558 405.316 78.6315 412.335 78.6315C419.943 78.6315 425.458 80.8035 428.88 85.1536C432.308 89.4977 434.019 96.9361 434.019 107.463V145.067H417.729V109.968C417.729 102.7 416.934 97.8947 415.345 95.5528C413.84 93.2169 410.958 92.0459 406.693 92.0459C403.356 92.0459 400.177 93.5506 397.167 96.5599C394.158 99.5692 392.653 102.785 392.653 106.207V145.067H375.987V53.562H392.653ZM463.536 106.334H490.365C490.11 95.6378 485.936 90.2925 477.83 90.2925C473.401 90.2925 470.016 91.5424 467.674 94.0542C465.417 96.56 464.039 100.655 463.536 106.334ZM463.536 117.243C463.961 123.255 465.75 127.642 468.93 130.403C472.103 133.072 476.781 134.413 482.969 134.413C487.98 134.413 494.205 133.163 501.644 130.651V143.441C494.042 145.358 487.143 146.323 480.961 146.323C470.016 146.323 461.576 143.483 455.643 137.798C449.794 132.035 446.863 123.589 446.863 112.48C446.863 101.444 449.497 93.0471 454.763 87.2833C460.029 81.5195 467.631 78.6315 477.575 78.6315C496.626 78.6315 506.152 89.789 506.152 112.104C506.152 113.772 506.03 115.483 505.782 117.243H463.536ZM524.056 145.067V79.8874H541.602V145.067H524.056ZM604.506 53.562H621.173V145.067H605.635L605.38 136.919H605.131C599.531 143.186 592.93 146.323 585.328 146.323C577.805 146.323 571.58 143.313 566.647 137.295C561.8 131.197 559.379 122.922 559.379 112.48C559.379 101.699 561.721 93.3807 566.398 87.532C571.161 81.5983 577.471 78.6315 585.328 78.6315C592.427 78.6315 598.736 81.2646 604.257 86.5309H604.5L604.506 53.562ZM575.924 112.474C575.924 119.579 577.222 124.93 579.807 128.522C582.398 132.035 585.91 133.788 590.339 133.788C594.186 133.788 597.523 132.49 600.368 129.905C603.293 127.308 604.755 124.341 604.755 120.998V103.95C604.755 100.613 603.293 97.6399 600.368 95.0553C597.652 92.5146 594.058 91.1232 590.339 91.1723C580.729 91.1723 575.924 98.2709 575.924 112.48M682.366 79.8874H698.159L698.414 88.0356H698.662C704.426 81.7682 711.112 78.6315 718.72 78.6315C726.323 78.6315 731.838 80.8035 735.266 85.1536C738.693 89.4128 740.405 96.56 740.405 106.583V145.067H724.108V107.839C724.108 101.571 723.319 97.3122 721.73 95.0553C720.14 92.7133 717.258 91.5424 713.078 91.5424C709.65 91.5424 706.434 93.0045 703.431 95.9289C700.501 98.8533 699.039 101.99 699.039 105.333V145.073H682.366V79.8874ZM761.288 145.067V51.0563H778.84V145.067H761.288Z" fill="#134273"/>
<path d="M89.2289 161.066L123.023 97.4457L53.002 108.731L89.2714 121.957L89.2289 161.066Z" fill="#DF6F00"/>
<path d="M652.067 145.036C657.582 145.036 662.053 141.157 662.053 136.372C662.053 131.588 657.582 127.709 652.067 127.709C646.551 127.709 642.08 131.588 642.08 136.372C642.08 141.157 646.551 145.036 652.067 145.036Z" fill="#B1D5EC"/>
<path d="M532.805 66.0361C537.59 66.0361 541.468 62.6705 541.468 58.5189C541.468 54.3673 537.59 51.0017 532.805 51.0017C528.02 51.0017 524.141 54.3673 524.141 58.5189C524.141 62.6705 528.02 66.0361 532.805 66.0361Z" fill="#134273"/>
</svg>
