<svg width="901" height="309" viewBox="0 0 901 309" fill="none" xmlns="http://www.w3.org/2000/svg">
<path d="M119.856 52.2939C106.994 52.2939 96.825 56.4621 89.3018 64.7316C81.8634 73.0072 79.1089 85.4813 79.1089 100.273C86.0012 99.1809 88.331 98.7562 96.0606 97.6398C96.0606 77.4362 103.978 66.6913 119.856 66.6913C135.819 66.6913 143.852 77.5758 143.852 99.3023C143.852 121.029 135.819 131.913 119.856 131.913C114.693 131.913 113.983 131.762 111.781 131.052L105.046 144.12C110.67 146.08 112.193 146.305 119.856 146.305C132.724 146.305 142.99 142.142 150.507 133.867C158.03 125.597 161.774 114.088 161.774 99.3023C161.774 84.5105 158.03 73.0072 150.507 64.7316C142.984 56.4621 132.73 52.2939 119.856 52.2939ZM188.002 79.8874L202.418 135.414H202.667L216.961 79.8874H234.38L213.327 145.067H191.139L170.08 79.8874H188.002ZM257.398 106.334H284.215C283.972 95.6378 279.786 90.2925 271.686 90.2925C267.257 90.2925 263.872 91.5424 261.53 94.0542C259.279 96.56 257.896 100.655 257.398 106.334ZM257.398 117.243C257.817 123.255 259.613 127.642 262.786 130.403C265.959 133.072 270.643 134.413 276.825 134.413C281.837 134.413 288.068 133.163 295.5 130.651V143.441C287.898 145.358 281 146.323 274.817 146.323C263.872 146.323 255.433 143.483 249.499 137.798C243.65 132.035 240.726 123.589 240.726 112.48C240.726 101.444 243.359 93.0471 248.619 87.2833C253.885 81.5195 261.494 78.6315 271.432 78.6315C290.482 78.6315 300.014 89.789 300.014 112.104C300.014 113.772 299.893 115.483 299.638 117.243H257.398ZM314.15 79.8874H330.823V92.4222H331.072C333.832 88.5756 337.551 85.5298 342.235 83.2728C347.054 81.0044 352.32 79.8474 357.646 79.8874H360.158V92.7983H357.646C349.043 92.7983 342.52 94.7641 338.091 98.6835C333.662 102.615 331.448 108.257 331.448 115.611V145.067H314.157V79.8874M392.653 53.562V87.4046H392.908C398.842 81.5558 405.316 78.6315 412.335 78.6315C419.943 78.6315 425.458 80.8035 428.88 85.1536C432.308 89.4977 434.019 96.9361 434.019 107.463V145.067H417.729V109.968C417.729 102.7 416.934 97.8947 415.345 95.5528C413.84 93.2169 410.958 92.0459 406.693 92.0459C403.356 92.0459 400.177 93.5506 397.167 96.5599C394.158 99.5692 392.653 102.785 392.653 106.207V145.067H375.987V53.562H392.653ZM463.536 106.334H490.365C490.11 95.6378 485.936 90.2925 477.83 90.2925C473.401 90.2925 470.016 91.5424 467.674 94.0542C465.417 96.56 464.039 100.655 463.536 106.334ZM463.536 117.243C463.961 123.255 465.75 127.642 468.93 130.403C472.103 133.072 476.781 134.413 482.969 134.413C487.98 134.413 494.205 133.163 501.644 130.651V143.441C494.042 145.358 487.143 146.323 480.961 146.323C470.016 146.323 461.576 143.483 455.643 137.798C449.794 132.035 446.863 123.589 446.863 112.48C446.863 101.444 449.497 93.0471 454.763 87.2833C460.029 81.5195 467.631 78.6315 477.575 78.6315C496.626 78.6315 506.152 89.789 506.152 112.104C506.152 113.772 506.03 115.483 505.782 117.243H463.536ZM524.056 145.067V79.8874H541.602V145.067H524.056ZM604.506 53.562H621.173V145.067H605.635L605.38 136.919H605.131C599.531 143.186 592.93 146.323 585.328 146.323C577.805 146.323 571.58 143.313 566.647 137.295C561.8 131.197 559.379 122.922 559.379 112.48C559.379 101.699 561.721 93.3807 566.398 87.532C571.161 81.5983 577.471 78.6315 585.328 78.6315C592.427 78.6315 598.736 81.2646 604.257 86.5309H604.5L604.506 53.562ZM575.924 112.474C575.924 119.579 577.222 124.93 579.807 128.522C582.398 132.035 585.91 133.788 590.339 133.788C594.186 133.788 597.523 132.49 600.368 129.905C603.293 127.308 604.755 124.341 604.755 120.998V103.95C604.755 100.613 603.293 97.6399 600.368 95.0553C597.652 92.5146 594.058 91.1232 590.339 91.1723C580.729 91.1723 575.924 98.2709 575.924 112.48M682.366 79.8874H698.159L698.414 88.0356H698.662C704.426 81.7682 711.112 78.6315 718.72 78.6315C726.323 78.6315 731.838 80.8035 735.266 85.1536C738.693 89.4128 740.405 96.56 740.405 106.583V145.067H724.108V107.839C724.108 101.571 723.319 97.3122 721.73 95.0553C720.14 92.7133 717.258 91.5424 713.078 91.5424C709.65 91.5424 706.434 93.0045 703.431 95.9289C700.501 98.8533 699.039 101.99 699.039 105.333V145.073H682.366V79.8874ZM761.288 145.067V51.0563H778.84V145.067H761.288Z" fill="#134273"/>
<path d="M89.2289 161.066L123.023 97.4457L53.002 108.731L89.2714 121.957L89.2289 161.066Z" fill="#DF6F00"/>
<path d="M652.067 145.036C657.582 145.036 662.053 141.157 662.053 136.372C662.053 131.588 657.582 127.709 652.067 127.709C646.551 127.709 642.08 131.588 642.08 136.372C642.08 141.157 646.551 145.036 652.067 145.036Z" fill="#B1D5EC"/>
<path d="M532.805 66.0361C537.59 66.0361 541.468 62.6705 541.468 58.5189C541.468 54.3673 537.59 51.0017 532.805 51.0017C528.02 51.0017 524.141 54.3673 524.141 58.5189C524.141 62.6705 528.02 66.0361 532.805 66.0361Z" fill="#134273"/>
<path d="M54.3618 242V200.031H59.3931V218.25H78.6118V200.031H83.6743V242H78.6118V222.75H59.3931V242H54.3618ZM93.1431 226.375C93.1431 223.771 93.4764 221.448 94.1431 219.406C94.8097 217.365 95.7368 215.667 96.9243 214.312C98.1326 212.938 99.5285 211.896 101.112 211.188C102.716 210.479 104.414 210.125 106.206 210.125C108.081 210.125 109.758 210.396 111.237 210.938C112.716 211.458 113.966 212.26 114.987 213.344C116.008 214.406 116.778 215.719 117.299 217.281C117.841 218.823 118.112 220.625 118.112 222.688C118.112 223.104 118.112 223.458 118.112 223.75C118.112 224.021 118.112 224.312 118.112 224.625C118.112 224.938 118.101 225.26 118.081 225.594C118.06 225.906 118.028 226.208 117.987 226.5H98.0181C98.0181 228.458 98.2576 230.167 98.7368 231.625C99.2368 233.083 99.9347 234.281 100.831 235.219C101.726 236.156 102.778 236.854 103.987 237.312C105.216 237.75 106.581 237.969 108.081 237.969C108.976 237.969 109.82 237.927 110.612 237.844C111.424 237.76 112.216 237.646 112.987 237.5C113.758 237.333 114.528 237.125 115.299 236.875C116.07 236.625 116.841 236.323 117.612 235.969V240.344C116.758 240.719 115.945 241.031 115.174 241.281C114.403 241.51 113.622 241.708 112.831 241.875C112.039 242.042 111.206 242.167 110.331 242.25C109.456 242.333 108.508 242.375 107.487 242.375C105.32 242.375 103.351 242.062 101.581 241.438C99.8097 240.792 98.2889 239.823 97.0181 238.531C95.7681 237.219 94.8097 235.552 94.1431 233.531C93.4764 231.49 93.1431 229.104 93.1431 226.375ZM98.2056 222.594H112.924C112.924 221.219 112.778 220.01 112.487 218.969C112.195 217.906 111.747 217.021 111.143 216.312C110.539 215.604 109.799 215.083 108.924 214.75C108.049 214.396 107.06 214.219 105.956 214.219C104.976 214.219 104.06 214.417 103.206 214.812C102.351 215.188 101.57 215.74 100.862 216.469C100.153 217.198 99.5701 218.083 99.1118 219.125C98.6743 220.167 98.3722 221.323 98.2056 222.594ZM123.268 214.688V210.719H127.049V205.188L131.831 204.5V210.719H140.018V214.688H131.831V232.281C131.831 233.26 131.945 234.115 132.174 234.844C132.424 235.552 132.768 236.146 133.206 236.625C133.664 237.083 134.185 237.438 134.768 237.688C135.372 237.917 136.039 238.031 136.768 238.031C137.143 238.031 137.497 238.021 137.831 238C138.185 237.979 138.518 237.948 138.831 237.906C139.164 237.865 139.508 237.812 139.862 237.75C140.237 237.688 140.612 237.615 140.987 237.531V241.688C140.466 241.812 139.976 241.917 139.518 242C139.081 242.083 138.643 242.156 138.206 242.219C137.789 242.281 137.372 242.323 136.956 242.344C136.539 242.365 136.07 242.375 135.549 242.375C134.32 242.375 133.195 242.208 132.174 241.875C131.174 241.542 130.278 240.99 129.487 240.219C128.716 239.448 128.112 238.438 127.674 237.188C127.258 235.917 127.049 234.385 127.049 232.594V214.688H123.268ZM156.487 242L169.737 200.031H177.674L190.518 242H184.893L181.518 230.688H165.112L161.799 242H156.487ZM166.393 226.312H180.299L173.706 203.906H173.112L166.393 226.312ZM196.831 242V197.656L201.674 197.25V242H196.831ZM208.956 246.281C208.956 245.594 209.081 244.896 209.331 244.188C209.581 243.5 209.935 242.854 210.393 242.25C210.872 241.667 211.435 241.125 212.081 240.625C212.726 240.125 213.383 239.729 214.049 239.438V239.188C213.716 239.021 213.383 238.812 213.049 238.562C212.737 238.292 212.476 237.99 212.268 237.656C212.06 237.302 211.893 236.938 211.768 236.562C211.643 236.167 211.581 235.74 211.581 235.281C211.581 234.802 211.653 234.344 211.799 233.906C211.945 233.448 212.164 233.031 212.456 232.656C212.768 232.281 213.133 231.938 213.549 231.625C213.987 231.292 214.456 231.042 214.956 230.875V230.688C214.226 230.312 213.56 229.854 212.956 229.312C212.372 228.771 211.872 228.135 211.456 227.406C211.06 226.677 210.737 225.865 210.487 224.969C210.258 224.073 210.143 223.094 210.143 222.031C210.143 220.24 210.424 218.625 210.987 217.188C211.549 215.729 212.372 214.5 213.456 213.5C214.539 212.479 215.862 211.708 217.424 211.188C218.987 210.646 220.726 210.375 222.643 210.375C223.018 210.375 223.424 210.385 223.862 210.406C224.32 210.427 224.758 210.458 225.174 210.5C225.612 210.542 226.018 210.604 226.393 210.688C226.789 210.75 227.133 210.823 227.424 210.906H237.049V214.531H231.143V214.75C231.622 215.042 232.039 215.427 232.393 215.906C232.768 216.365 233.091 216.885 233.362 217.469C233.633 218.031 233.841 218.656 233.987 219.344C234.153 220.031 234.237 220.74 234.237 221.469C234.237 223.26 233.945 224.833 233.362 226.188C232.778 227.521 231.935 228.646 230.831 229.562C229.726 230.479 228.372 231.177 226.768 231.656C225.164 232.115 223.362 232.344 221.362 232.344C221.028 232.344 220.706 232.333 220.393 232.312C220.101 232.292 219.799 232.271 219.487 232.25C219.195 232.229 218.914 232.188 218.643 232.125C218.372 232.062 218.101 232 217.831 231.938C217.539 232.021 217.268 232.156 217.018 232.344C216.789 232.51 216.581 232.698 216.393 232.906C216.206 233.115 216.06 233.354 215.956 233.625C215.851 233.875 215.799 234.125 215.799 234.375C215.799 234.75 215.872 235.104 216.018 235.438C216.164 235.75 216.383 236.031 216.674 236.281C216.987 236.51 217.393 236.688 217.893 236.812C218.414 236.938 219.018 237 219.706 237L228.081 237.25C229.539 237.292 230.81 237.49 231.893 237.844C232.976 238.177 233.872 238.646 234.581 239.25C235.289 239.854 235.81 240.562 236.143 241.375C236.476 242.167 236.643 243.083 236.643 244.125C236.643 245.625 236.331 247 235.706 248.25C235.101 249.5 234.164 250.594 232.893 251.531C231.643 252.469 230.07 253.188 228.174 253.688C226.278 254.208 224.091 254.469 221.612 254.469C219.653 254.469 217.883 254.271 216.299 253.875C214.716 253.5 213.383 252.948 212.299 252.219C211.216 251.51 210.383 250.646 209.799 249.625C209.237 248.604 208.956 247.49 208.956 246.281ZM213.362 245.469C213.362 246.24 213.549 246.927 213.924 247.531C214.32 248.156 214.883 248.688 215.612 249.125C216.362 249.583 217.268 249.927 218.331 250.156C219.414 250.385 220.653 250.5 222.049 250.5C223.841 250.5 225.383 250.375 226.674 250.125C227.987 249.875 229.06 249.5 229.893 249C230.726 248.521 231.341 247.948 231.737 247.281C232.153 246.615 232.362 245.875 232.362 245.062C232.362 244.5 232.278 244.01 232.112 243.594C231.945 243.177 231.664 242.823 231.268 242.531C230.893 242.26 230.393 242.042 229.768 241.875C229.164 241.708 228.414 241.604 227.518 241.562L216.799 241.031C216.237 241.24 215.747 241.49 215.331 241.781C214.914 242.052 214.549 242.365 214.237 242.719C213.945 243.094 213.726 243.51 213.581 243.969C213.435 244.448 213.362 244.948 213.362 245.469ZM215.018 221.594C215.018 222.865 215.185 223.958 215.518 224.875C215.872 225.792 216.351 226.531 216.956 227.094C217.581 227.635 218.31 228.042 219.143 228.312C219.976 228.562 220.903 228.688 221.924 228.688C223.195 228.688 224.289 228.552 225.206 228.281C226.143 227.99 226.914 227.552 227.518 226.969C228.143 226.365 228.601 225.583 228.893 224.625C229.206 223.667 229.362 222.521 229.362 221.188C229.362 220.042 229.195 219.031 228.862 218.156C228.549 217.281 228.081 216.562 227.456 216C226.851 215.417 226.112 214.979 225.237 214.688C224.362 214.375 223.372 214.219 222.268 214.219C221.164 214.219 220.153 214.375 219.237 214.688C218.341 214.979 217.57 215.438 216.924 216.062C216.299 216.667 215.82 217.427 215.487 218.344C215.174 219.26 215.018 220.344 215.018 221.594ZM241.768 226.781C241.768 224.26 242.153 221.958 242.924 219.875C243.695 217.771 244.747 216.01 246.081 214.594C247.435 213.156 248.987 212.052 250.737 211.281C252.487 210.51 254.341 210.125 256.299 210.125C258.383 210.125 260.278 210.469 261.987 211.156C263.695 211.844 265.143 212.854 266.331 214.188C267.539 215.5 268.466 217.146 269.112 219.125C269.758 221.104 270.081 223.396 270.081 226C270.081 228.521 269.695 230.812 268.924 232.875C268.153 234.938 267.091 236.698 265.737 238.156C264.403 239.615 262.851 240.719 261.081 241.469C259.31 242.198 257.445 242.562 255.487 242.562C253.403 242.562 251.518 242.24 249.831 241.594C248.143 240.927 246.695 239.927 245.487 238.594C244.299 237.24 243.383 235.573 242.737 233.594C242.091 231.594 241.768 229.323 241.768 226.781ZM246.831 226.5C246.831 228.417 247.028 230.115 247.424 231.594C247.841 233.073 248.445 234.302 249.237 235.281C250.028 236.26 250.987 237 252.112 237.5C253.237 237.979 254.528 238.219 255.987 238.219C257.299 238.219 258.508 237.948 259.612 237.406C260.737 236.844 261.706 236.042 262.518 235C263.331 233.958 263.945 232.688 264.362 231.188C264.799 229.688 265.018 228.021 265.018 226.188C265.018 224.271 264.81 222.583 264.393 221.125C263.997 219.646 263.403 218.417 262.612 217.438C261.82 216.438 260.862 215.698 259.737 215.219C258.612 214.719 257.32 214.469 255.862 214.469C254.549 214.469 253.331 214.74 252.206 215.281C251.101 215.823 250.143 216.615 249.331 217.656C248.518 218.698 247.893 219.969 247.456 221.469C247.039 222.948 246.831 224.625 246.831 226.5ZM278.393 242V210.906L283.174 210.5V214.156C283.778 213.469 284.351 212.885 284.893 212.406C285.456 211.906 286.008 211.51 286.549 211.219C287.091 210.927 287.633 210.708 288.174 210.562C288.737 210.396 289.289 210.312 289.831 210.312C290.164 210.312 290.476 210.323 290.768 210.344C291.081 210.365 291.372 210.385 291.643 210.406C291.935 210.427 292.226 210.479 292.518 210.562C292.831 210.625 293.153 210.698 293.487 210.781L292.924 215.562C292.591 215.479 292.268 215.406 291.956 215.344C291.664 215.281 291.372 215.229 291.081 215.188C290.81 215.146 290.528 215.115 290.237 215.094C289.966 215.073 289.664 215.062 289.331 215.062C288.81 215.062 288.299 215.125 287.799 215.25C287.32 215.375 286.841 215.573 286.362 215.844C285.903 216.094 285.414 216.427 284.893 216.844C284.393 217.24 283.841 217.729 283.237 218.312V242H278.393ZM298.862 200.469C298.862 199.99 298.935 199.552 299.081 199.156C299.247 198.74 299.466 198.406 299.737 198.156C300.008 197.906 300.331 197.708 300.706 197.562C301.101 197.396 301.539 197.312 302.018 197.312C302.497 197.312 302.924 197.396 303.299 197.562C303.674 197.708 303.987 197.906 304.237 198.156C304.508 198.406 304.716 198.729 304.862 199.125C305.008 199.5 305.081 199.948 305.081 200.469C305.081 200.948 305.008 201.375 304.862 201.75C304.716 202.125 304.508 202.448 304.237 202.719C303.987 202.969 303.664 203.167 303.268 203.312C302.893 203.458 302.476 203.531 302.018 203.531C301.539 203.531 301.101 203.458 300.706 203.312C300.331 203.167 300.008 202.969 299.737 202.719C299.466 202.448 299.247 202.125 299.081 201.75C298.935 201.375 298.862 200.948 298.862 200.469ZM299.581 242V210.906L304.424 210.5V242H299.581ZM311.893 214.688V210.719H315.674V205.188L320.456 204.5V210.719H328.643V214.688H320.456V232.281C320.456 233.26 320.57 234.115 320.799 234.844C321.049 235.552 321.393 236.146 321.831 236.625C322.289 237.083 322.81 237.438 323.393 237.688C323.997 237.917 324.664 238.031 325.393 238.031C325.768 238.031 326.122 238.021 326.456 238C326.81 237.979 327.143 237.948 327.456 237.906C327.789 237.865 328.133 237.812 328.487 237.75C328.862 237.688 329.237 237.615 329.612 237.531V241.688C329.091 241.812 328.601 241.917 328.143 242C327.706 242.083 327.268 242.156 326.831 242.219C326.414 242.281 325.997 242.323 325.581 242.344C325.164 242.365 324.695 242.375 324.174 242.375C322.945 242.375 321.82 242.208 320.799 241.875C319.799 241.542 318.903 240.99 318.112 240.219C317.341 239.448 316.737 238.438 316.299 237.188C315.883 235.917 315.674 234.385 315.674 232.594V214.688H311.893ZM335.956 242V210.906L340.612 210.5V212.625C341.383 212.208 342.101 211.854 342.768 211.562C343.435 211.25 344.091 211.01 344.737 210.844C345.403 210.656 346.091 210.521 346.799 210.438C347.508 210.354 348.268 210.312 349.081 210.312C350.06 210.312 350.987 210.385 351.862 210.531C352.737 210.656 353.528 210.854 354.237 211.125C354.966 211.396 355.633 211.74 356.237 212.156C356.841 212.552 357.372 213.01 357.831 213.531C358.768 212.927 359.653 212.427 360.487 212.031C361.32 211.615 362.143 211.292 362.956 211.062C363.768 210.833 364.591 210.656 365.424 210.531C366.258 210.385 367.164 210.312 368.143 210.312C369.893 210.312 371.445 210.552 372.799 211.031C374.174 211.49 375.31 212.167 376.206 213.062C377.101 213.958 377.778 215.073 378.237 216.406C378.716 217.719 378.956 219.229 378.956 220.938V242H374.081V221.531C374.081 220.51 373.945 219.583 373.674 218.75C373.403 217.917 372.976 217.208 372.393 216.625C371.831 216.042 371.122 215.594 370.268 215.281C369.414 214.969 368.424 214.812 367.299 214.812C366.57 214.812 365.903 214.844 365.299 214.906C364.716 214.969 364.143 215.062 363.581 215.188C363.039 215.312 362.476 215.469 361.893 215.656C361.331 215.844 360.664 216.094 359.893 216.406V242H355.018V221.406C355.018 220.344 354.893 219.396 354.643 218.562C354.393 217.708 353.987 217.01 353.424 216.469C352.862 215.906 352.153 215.49 351.299 215.219C350.445 214.948 349.424 214.812 348.237 214.812C347.466 214.812 346.768 214.844 346.143 214.906C345.539 214.969 344.956 215.052 344.393 215.156C343.851 215.26 343.299 215.417 342.737 215.625C342.174 215.833 341.528 216.094 340.799 216.406V242H335.956ZM386.831 226.375C386.831 223.771 387.164 221.448 387.831 219.406C388.497 217.365 389.424 215.667 390.612 214.312C391.82 212.938 393.216 211.896 394.799 211.188C396.403 210.479 398.101 210.125 399.893 210.125C401.768 210.125 403.445 210.396 404.924 210.938C406.403 211.458 407.653 212.26 408.674 213.344C409.695 214.406 410.466 215.719 410.987 217.281C411.528 218.823 411.799 220.625 411.799 222.688C411.799 223.104 411.799 223.458 411.799 223.75C411.799 224.021 411.799 224.312 411.799 224.625C411.799 224.938 411.789 225.26 411.768 225.594C411.747 225.906 411.716 226.208 411.674 226.5H391.706C391.706 228.458 391.945 230.167 392.424 231.625C392.924 233.083 393.622 234.281 394.518 235.219C395.414 236.156 396.466 236.854 397.674 237.312C398.903 237.75 400.268 237.969 401.768 237.969C402.664 237.969 403.508 237.927 404.299 237.844C405.112 237.76 405.903 237.646 406.674 237.5C407.445 237.333 408.216 237.125 408.987 236.875C409.758 236.625 410.528 236.323 411.299 235.969V240.344C410.445 240.719 409.633 241.031 408.862 241.281C408.091 241.51 407.31 241.708 406.518 241.875C405.726 242.042 404.893 242.167 404.018 242.25C403.143 242.333 402.195 242.375 401.174 242.375C399.008 242.375 397.039 242.062 395.268 241.438C393.497 240.792 391.976 239.823 390.706 238.531C389.456 237.219 388.497 235.552 387.831 233.531C387.164 231.49 386.831 229.104 386.831 226.375ZM391.893 222.594H406.612C406.612 221.219 406.466 220.01 406.174 218.969C405.883 217.906 405.435 217.021 404.831 216.312C404.226 215.604 403.487 215.083 402.612 214.75C401.737 214.396 400.747 214.219 399.643 214.219C398.664 214.219 397.747 214.417 396.893 214.812C396.039 215.188 395.258 215.74 394.549 216.469C393.841 217.198 393.258 218.083 392.799 219.125C392.362 220.167 392.06 221.323 391.893 222.594ZM419.768 242V197.656L424.612 197.25V222.812H427.456L437.862 210.719H443.893L431.737 224.219L444.987 242H438.893L427.893 227.031H424.612V242H419.768ZM447.956 233.938C447.956 232.562 448.247 231.312 448.831 230.188C449.435 229.062 450.32 228.073 451.487 227.219C452.674 226.365 454.153 225.708 455.924 225.25C457.695 224.771 459.758 224.531 462.112 224.531C462.674 224.531 463.112 224.531 463.424 224.531C463.737 224.531 464.06 224.531 464.393 224.531C464.747 224.531 465.122 224.542 465.518 224.562C465.935 224.583 466.372 224.594 466.831 224.594V221.188C466.831 220.167 466.685 219.25 466.393 218.438C466.101 217.625 465.664 216.958 465.081 216.438C464.497 215.896 463.747 215.49 462.831 215.219C461.914 214.948 460.862 214.812 459.674 214.812C458.945 214.812 458.206 214.854 457.456 214.938C456.706 215.021 455.956 215.146 455.206 215.312C454.476 215.479 453.716 215.698 452.924 215.969C452.133 216.219 451.331 216.51 450.518 216.844L449.487 212.75C450.466 212.333 451.393 211.969 452.268 211.656C453.143 211.323 454.008 211.062 454.862 210.875C455.716 210.667 456.591 210.521 457.487 210.438C458.383 210.354 459.341 210.312 460.362 210.312C462.153 210.312 463.747 210.542 465.143 211C466.539 211.438 467.706 212.083 468.643 212.938C469.581 213.792 470.289 214.854 470.768 216.125C471.268 217.375 471.518 218.792 471.518 220.375V242H466.956V239.812C466.185 240.292 465.445 240.698 464.737 241.031C464.049 241.344 463.341 241.604 462.612 241.812C461.883 242.021 461.122 242.167 460.331 242.25C459.56 242.333 458.674 242.375 457.674 242.375C456.174 242.375 454.831 242.177 453.643 241.781C452.456 241.365 451.435 240.792 450.581 240.062C449.726 239.312 449.07 238.417 448.612 237.375C448.174 236.312 447.956 235.167 447.956 233.938ZM453.081 233.562C453.081 234.25 453.195 234.885 453.424 235.469C453.653 236.031 454.008 236.521 454.487 236.938C454.966 237.333 455.549 237.635 456.237 237.844C456.945 238.052 457.768 238.156 458.706 238.156C459.476 238.156 460.216 238.115 460.924 238.031C461.633 237.948 462.31 237.812 462.956 237.625C463.622 237.417 464.278 237.177 464.924 236.906C465.57 236.635 466.206 236.302 466.831 235.906V228.562C466.789 228.562 466.435 228.552 465.768 228.531C465.122 228.51 464.601 228.49 464.206 228.469C463.831 228.448 463.456 228.438 463.081 228.438C462.726 228.438 462.362 228.438 461.987 228.438C460.403 228.438 459.028 228.562 457.862 228.812C456.716 229.062 455.789 229.427 455.081 229.906C454.393 230.365 453.883 230.906 453.549 231.531C453.237 232.156 453.081 232.833 453.081 233.562ZM479.393 227.156C479.393 224.51 479.778 222.135 480.549 220.031C481.32 217.906 482.403 216.135 483.799 214.719C485.216 213.281 486.883 212.188 488.799 211.438C490.737 210.688 492.851 210.312 495.143 210.312C495.706 210.312 496.226 210.323 496.706 210.344C497.206 210.365 497.664 210.406 498.081 210.469C498.518 210.531 498.935 210.615 499.331 210.719C499.747 210.802 500.122 210.906 500.456 211.031V197.656L505.331 197.25V242H500.581V239.938C500.018 240.312 499.424 240.656 498.799 240.969C498.195 241.281 497.549 241.542 496.862 241.75C496.195 241.958 495.497 242.115 494.768 242.219C494.039 242.323 493.31 242.375 492.581 242.375C490.664 242.375 488.903 242.052 487.299 241.406C485.716 240.74 484.331 239.771 483.143 238.5C481.976 237.208 481.06 235.604 480.393 233.688C479.726 231.771 479.393 229.594 479.393 227.156ZM484.456 226.719C484.456 228.552 484.674 230.188 485.112 231.625C485.57 233.042 486.206 234.219 487.018 235.156C487.831 236.094 488.799 236.802 489.924 237.281C491.07 237.74 492.32 237.969 493.674 237.969C494.362 237.969 494.997 237.927 495.581 237.844C496.185 237.76 496.747 237.646 497.268 237.5C497.81 237.333 498.341 237.125 498.862 236.875C499.383 236.625 499.914 236.323 500.456 235.969V215.125C499.935 215.042 499.456 214.969 499.018 214.906C498.581 214.844 498.122 214.792 497.643 214.75C497.185 214.708 496.716 214.677 496.237 214.656C495.778 214.615 495.289 214.594 494.768 214.594C493.185 214.594 491.758 214.865 490.487 215.406C489.237 215.948 488.153 216.74 487.237 217.781C486.32 218.823 485.622 220.104 485.143 221.625C484.685 223.125 484.456 224.823 484.456 226.719ZM513.643 226.375C513.643 223.771 513.976 221.448 514.643 219.406C515.31 217.365 516.237 215.667 517.424 214.312C518.633 212.938 520.028 211.896 521.612 211.188C523.216 210.479 524.914 210.125 526.706 210.125C528.581 210.125 530.258 210.396 531.737 210.938C533.216 211.458 534.466 212.26 535.487 213.344C536.508 214.406 537.278 215.719 537.799 217.281C538.341 218.823 538.612 220.625 538.612 222.688C538.612 223.104 538.612 223.458 538.612 223.75C538.612 224.021 538.612 224.312 538.612 224.625C538.612 224.938 538.601 225.26 538.581 225.594C538.56 225.906 538.528 226.208 538.487 226.5H518.518C518.518 228.458 518.758 230.167 519.237 231.625C519.737 233.083 520.435 234.281 521.331 235.219C522.226 236.156 523.278 236.854 524.487 237.312C525.716 237.75 527.081 237.969 528.581 237.969C529.476 237.969 530.32 237.927 531.112 237.844C531.924 237.76 532.716 237.646 533.487 237.5C534.258 237.333 535.028 237.125 535.799 236.875C536.57 236.625 537.341 236.323 538.112 235.969V240.344C537.258 240.719 536.445 241.031 535.674 241.281C534.903 241.51 534.122 241.708 533.331 241.875C532.539 242.042 531.706 242.167 530.831 242.25C529.956 242.333 529.008 242.375 527.987 242.375C525.82 242.375 523.851 242.062 522.081 241.438C520.31 240.792 518.789 239.823 517.518 238.531C516.268 237.219 515.31 235.552 514.643 233.531C513.976 231.49 513.643 229.104 513.643 226.375ZM518.706 222.594H533.424C533.424 221.219 533.278 220.01 532.987 218.969C532.695 217.906 532.247 217.021 531.643 216.312C531.039 215.604 530.299 215.083 529.424 214.75C528.549 214.396 527.56 214.219 526.456 214.219C525.476 214.219 524.56 214.417 523.706 214.812C522.851 215.188 522.07 215.74 521.362 216.469C520.653 217.198 520.07 218.083 519.612 219.125C519.174 220.167 518.872 221.323 518.706 222.594ZM546.581 242V210.906L551.362 210.5V214.156C551.966 213.469 552.539 212.885 553.081 212.406C553.643 211.906 554.195 211.51 554.737 211.219C555.278 210.927 555.82 210.708 556.362 210.562C556.924 210.396 557.476 210.312 558.018 210.312C558.351 210.312 558.664 210.323 558.956 210.344C559.268 210.365 559.56 210.385 559.831 210.406C560.122 210.427 560.414 210.479 560.706 210.562C561.018 210.625 561.341 210.698 561.674 210.781L561.112 215.562C560.778 215.479 560.456 215.406 560.143 215.344C559.851 215.281 559.56 215.229 559.268 215.188C558.997 215.146 558.716 215.115 558.424 215.094C558.153 215.073 557.851 215.062 557.518 215.062C556.997 215.062 556.487 215.125 555.987 215.25C555.508 215.375 555.028 215.573 554.549 215.844C554.091 216.094 553.601 216.427 553.081 216.844C552.581 217.24 552.028 217.729 551.424 218.312V242H546.581Z" fill="#154273"/>
</svg>
