<svg width="184" height="53" viewBox="0 0 184 53" fill="none" xmlns="http://www.w3.org/2000/svg">
<rect width="184" height="53" fill="white"/>
<g clip-path="url(#clip0_96_126)">
<path d="M16.6717 0.329261C13.4642 0.329261 10.9286 1.38962 9.0525 3.49335C7.19763 5.59862 6.51074 8.77196 6.51074 12.5349C8.22945 12.2571 8.81043 12.149 10.7379 11.865C10.7379 6.72533 12.7123 3.99188 16.6717 3.99188C20.6522 3.99188 22.6554 6.76084 22.6554 12.2879C22.6554 17.8151 20.6522 20.584 16.6717 20.584C15.3842 20.584 15.2072 20.5454 14.658 20.3648L12.9786 23.6895C14.3811 24.188 14.7608 24.2451 16.6717 24.2451C19.8806 24.2451 22.4406 23.1863 24.3151 21.081C26.1911 18.9773 27.1246 16.0493 27.1246 12.2879C27.1246 8.525 26.1911 5.59862 24.3151 3.49335C22.439 1.38962 19.8822 0.329261 16.6717 0.329261ZM33.6651 7.3489L37.2599 21.4746H37.3219L40.8864 7.3489H45.2301L39.9801 23.9302H34.4473L29.1959 7.3489H33.6651ZM50.9702 14.0768H57.6574C57.5969 11.3557 56.5529 9.99592 54.5332 9.99592C53.4287 9.99592 52.5845 10.3139 52.0005 10.9529C51.4392 11.5903 51.0942 12.6322 50.9702 14.0768ZM50.9702 16.8519C51.0746 18.3815 51.5224 19.4974 52.3137 20.1997C53.1049 20.8788 54.2729 21.2199 55.8146 21.2199C57.0643 21.2199 58.6181 20.902 60.4715 20.263V23.5166C58.5757 24.0043 56.8555 24.2497 55.3138 24.2497C52.5845 24.2497 50.48 23.5274 49.0003 22.0812C47.5418 20.6149 46.8126 18.4664 46.8126 15.6403C46.8126 12.8328 47.4692 10.6967 48.7809 9.23038C50.0942 7.7641 51.9914 7.0294 54.4696 7.0294C59.2203 7.0294 61.5971 9.86781 61.5971 15.5446C61.5971 15.9691 61.5668 16.4043 61.5033 16.8519H50.9702ZM65.1223 7.3489H69.2798V10.5377H69.3419C70.0303 9.55914 70.9577 8.78431 72.1257 8.21014C73.3272 7.63306 74.6406 7.33873 75.9686 7.3489H76.5949V10.6334H75.9686C73.8232 10.6334 72.1968 11.1335 71.0923 12.1305C69.9879 13.1307 69.4357 14.5661 69.4357 16.4368V23.9302H65.1238V7.3489M84.6983 0.651842V9.26123H84.7618C86.2415 7.77334 87.8558 7.0294 89.6063 7.0294C91.5035 7.0294 92.8788 7.58195 93.7321 8.68861C94.5869 9.79372 95.0135 11.686 95.0135 14.3639V23.9302H90.9513V15.0014C90.9513 13.1523 90.7531 11.9299 90.3567 11.3341C89.9815 10.7399 89.2628 10.442 88.1992 10.442C87.3671 10.442 86.5743 10.8248 85.8239 11.5903C85.0735 12.3559 84.6983 13.1739 84.6983 14.0444V23.9302H80.5422V0.651842H84.6983ZM102.374 14.0768H109.064C109.001 11.3557 107.96 9.99592 105.939 9.99592C104.834 9.99592 103.99 10.3139 103.406 10.9529C102.843 11.5903 102.5 12.6322 102.374 14.0768ZM102.374 16.8519C102.48 18.3815 102.926 19.4974 103.719 20.1997C104.51 20.8788 105.677 21.2199 107.22 21.2199C108.47 21.2199 110.022 20.902 111.877 20.263V23.5166C109.981 24.0043 108.261 24.2497 106.719 24.2497C103.99 24.2497 101.885 23.5274 100.406 22.0812C98.9472 20.6149 98.2164 18.4664 98.2164 15.6403C98.2164 12.8328 98.873 10.6967 100.186 9.23038C101.5 7.7641 103.395 7.0294 105.875 7.0294C110.626 7.0294 113.001 9.86781 113.001 15.5446C113.001 15.9691 112.971 16.4043 112.909 16.8519H102.374ZM117.466 23.9302V7.3489H121.841V23.9302H117.466ZM137.527 0.651842H141.683V23.9302H137.809L137.745 21.8574H137.683C136.287 23.4518 134.641 24.2497 132.745 24.2497C130.869 24.2497 129.317 23.4842 128.087 21.9531C126.878 20.4019 126.274 18.2966 126.274 15.6403C126.274 12.8976 126.858 10.7815 128.024 9.29364C129.212 7.78414 130.786 7.0294 132.745 7.0294C134.515 7.0294 136.088 7.69926 137.465 9.03898H137.526L137.527 0.651842ZM130.4 15.6388C130.4 17.4462 130.724 18.8075 131.368 19.7212C132.014 20.6149 132.89 21.0609 133.995 21.0609C134.954 21.0609 135.786 20.7307 136.495 20.0731C137.225 19.4125 137.589 18.6578 137.589 17.8073V13.4702C137.589 12.6213 137.225 11.865 136.495 11.2075C135.818 10.5612 134.922 10.2072 133.995 10.2197C131.598 10.2197 130.4 12.0256 130.4 15.6403M156.943 7.3489H160.881L160.945 9.42176H161.007C162.444 7.82737 164.111 7.0294 166.009 7.0294C167.904 7.0294 169.279 7.58195 170.134 8.68861C170.989 9.77211 171.416 11.5903 171.416 14.1401V23.9302H167.352V14.4596C167.352 12.8652 167.155 11.7817 166.759 11.2075C166.363 10.6118 165.644 10.3139 164.601 10.3139C163.747 10.3139 162.945 10.6858 162.196 11.4298C161.465 12.1737 161.1 12.9717 161.1 13.8221V23.9318H156.943V7.3489ZM176.623 23.9302V0.0144043H181V23.9302H176.623Z" fill="#134273"/>
<path d="M9.03427 28.0003L17.4614 11.8157L0.000488281 14.6865L9.04487 18.0512L9.03427 28.0003Z" fill="#DF6F00"/>
<path d="M149.387 23.9225C150.763 23.9225 151.878 22.9357 151.878 21.7184C151.878 20.5012 150.763 19.5144 149.387 19.5144C148.012 19.5144 146.897 20.5012 146.897 21.7184C146.897 22.9357 148.012 23.9225 149.387 23.9225Z" fill="#B1D5EC"/>
<path d="M119.647 3.82516C120.84 3.82516 121.808 2.96898 121.808 1.91283C121.808 0.856669 120.84 0.000488281 119.647 0.000488281C118.454 0.000488281 117.487 0.856669 117.487 1.91283C117.487 2.96898 118.454 3.82516 119.647 3.82516Z" fill="#134273"/>
</g>
<path d="M6.6333 47V36.0796H7.93701V40.8184H12.9321V36.0796H14.2578V47H12.9321V41.9902H7.93701V47H6.6333ZM16.7114 42.9351C16.7114 41.5972 17.0312 40.5571 17.6709 39.8149C18.3105 39.0728 19.1211 38.7017 20.1025 38.7017C21.0938 38.7017 21.8555 38.9824 22.3877 39.5439C22.9199 40.1055 23.186 40.916 23.186 41.9756C23.186 42.415 23.1763 42.7446 23.1567 42.9644H17.9712C17.981 43.9653 18.2178 44.7148 18.6816 45.2129C19.1455 45.7061 19.7778 45.9526 20.5786 45.9526C21.4673 45.9526 22.2974 45.7817 23.0688 45.4399V46.5679C22.2192 46.9292 21.3403 47.1074 20.4321 47.1025C19.27 47.1025 18.3594 46.7583 17.7002 46.0698C17.041 45.3813 16.7114 44.3364 16.7114 42.9351ZM18.0151 41.9609H21.8384C21.8384 40.501 21.2378 39.771 20.0366 39.771C19.519 39.771 19.0723 39.9663 18.6963 40.3569C18.3203 40.7476 18.0933 41.2822 18.0151 41.9609ZM24.5264 39.8882V38.8555H25.5005V37.4272L26.7603 37.2515V38.8555H28.8916V39.8882H26.7603V44.4658C26.7603 44.9639 26.875 45.3398 27.1045 45.5938C27.334 45.8428 27.644 45.9673 28.0347 45.9673C28.4058 45.9673 28.772 45.9209 29.1333 45.8281V46.9121C28.6646 47.0439 28.1934 47.1074 27.7197 47.1025C26.2402 47.1025 25.5005 46.2529 25.5005 44.5537V39.8882H24.5264ZM33.5938 44.8979C33.5938 44.1802 33.9062 43.5942 34.5312 43.1401C35.1562 42.6812 36.0693 42.4517 37.2705 42.4517C37.749 42.4517 38.1592 42.459 38.501 42.4736V41.5874C38.501 40.479 37.8809 39.9224 36.6406 39.9175C35.8691 39.9175 35.0732 40.0981 34.2529 40.4595L33.9893 39.3975C34.9512 38.9775 35.896 38.7676 36.8237 38.7676C37.7515 38.7676 38.4644 38.9946 38.9624 39.4487C39.4653 39.9028 39.7168 40.5449 39.7168 41.375V47H38.5449V46.4287C37.8027 46.8779 36.9971 47.1025 36.1279 47.1025C35.3467 47.1025 34.729 46.9023 34.2749 46.502C33.8208 46.1016 33.5938 45.5669 33.5938 44.8979ZM34.9341 44.7954C34.9341 45.1665 35.0586 45.4595 35.3076 45.6743C35.5566 45.8892 35.9155 45.9966 36.3843 45.9966C37.1558 45.9966 37.8613 45.8062 38.501 45.4253V43.5063C37.8613 43.4868 37.4414 43.4771 37.2412 43.4771C36.4404 43.4771 35.8545 43.6016 35.4834 43.8506C35.1172 44.0996 34.9341 44.4146 34.9341 44.7954ZM42.2656 47V35.4644L43.5254 35.3618V47H42.2656ZM45.4004 48.1133C45.4004 47.752 45.5273 47.4053 45.7812 47.0732C46.0352 46.7461 46.3477 46.502 46.7188 46.3408V46.2676C46.2891 46.0479 46.0742 45.7061 46.0742 45.2422C46.0742 45.0029 46.1523 44.7783 46.3086 44.5684C46.4697 44.3584 46.687 44.2046 46.9604 44.1069V44.063C46.1304 43.6333 45.7153 42.8813 45.7153 41.8071C45.7153 40.855 46.001 40.1128 46.5723 39.5806C47.1484 39.0483 47.9419 38.7822 48.9526 38.7822C49.4507 38.7822 49.8657 38.8262 50.1978 38.9141H52.7026V39.8589H51.1719V39.9028C51.7041 40.2739 51.9702 40.8599 51.9702 41.6606C51.9702 42.5786 51.6797 43.2793 51.0986 43.7627C50.5176 44.2412 49.6924 44.4805 48.623 44.4805C48.2812 44.4805 47.9761 44.4512 47.7075 44.3926C47.5562 44.4316 47.4268 44.5146 47.3193 44.6416C47.2168 44.7637 47.1655 44.8906 47.1655 45.0225C47.1655 45.4619 47.5073 45.6865 48.1909 45.6963L50.3809 45.7695C51.8604 45.8086 52.6001 46.4043 52.6001 47.5566C52.6001 48.3672 52.2656 49.0166 51.5967 49.5049C50.9326 49.9932 49.9609 50.2373 48.6816 50.2373C47.6611 50.2373 46.8579 50.0444 46.272 49.6587C45.6909 49.2778 45.4004 48.7627 45.4004 48.1133ZM46.5356 47.9009C46.5356 48.311 46.7334 48.6333 47.1289 48.8677C47.5244 49.1021 48.0835 49.2192 48.8062 49.2192C50.5981 49.2192 51.4917 48.7456 51.4868 47.7983C51.4868 47.5005 51.3892 47.2783 51.1938 47.1318C50.9985 46.9854 50.6763 46.9023 50.2271 46.8828L47.4365 46.7437C46.8359 46.9536 46.5356 47.3394 46.5356 47.9009ZM46.9751 41.6899C46.9751 42.9204 47.5757 43.5356 48.7769 43.5356C49.4458 43.5356 49.9341 43.3843 50.2417 43.0815C50.5542 42.7739 50.7104 42.2759 50.7104 41.5874C50.7104 40.9966 50.5469 40.5474 50.2197 40.2397C49.8975 39.9272 49.4458 39.771 48.8647 39.771C48.2642 39.771 47.7979 39.9346 47.4658 40.2617C47.1387 40.584 46.9751 41.0601 46.9751 41.6899ZM53.9331 43.0376C53.9331 41.729 54.2969 40.6792 55.0244 39.8882C55.7568 39.0972 56.6479 38.7017 57.6978 38.7017C58.8062 38.7017 59.6802 39.0557 60.3198 39.7637C60.9595 40.4668 61.2793 41.4897 61.2793 42.8325C61.2793 44.1411 60.9082 45.1885 60.166 45.9746C59.4287 46.7559 58.5352 47.1465 57.4854 47.1465C56.377 47.1465 55.5078 46.7949 54.8779 46.0918C54.248 45.3838 53.9331 44.3657 53.9331 43.0376ZM55.2368 42.9644C55.2368 43.9653 55.4419 44.7271 55.8521 45.2495C56.2622 45.7671 56.8506 46.0259 57.6172 46.0259C58.3154 46.0259 58.8794 45.7427 59.3091 45.1763C59.7437 44.6099 59.9609 43.8481 59.9609 42.8911C59.9609 41.8901 59.7559 41.1333 59.3457 40.6206C58.9355 40.103 58.3496 39.8442 57.5879 39.8442C56.8799 39.8442 56.311 40.125 55.8813 40.6865C55.4517 41.2432 55.2368 42.0024 55.2368 42.9644ZM63.4326 47V38.9141L64.6777 38.8115V39.7563C65.2588 39.0972 65.835 38.7676 66.4062 38.7676C66.7285 38.7676 67.0483 38.8018 67.3657 38.8701L67.2119 40.1299C66.8896 40.042 66.5796 39.998 66.2817 39.998C65.7935 39.998 65.2637 40.2764 64.6924 40.833V47H63.4326ZM68.7646 36.1968C68.7646 35.938 68.833 35.7378 68.9697 35.5962C69.1113 35.4497 69.3115 35.3765 69.5703 35.3765C69.834 35.3765 70.0317 35.4497 70.1636 35.5962C70.3003 35.7378 70.3687 35.938 70.3687 36.1968C70.3687 36.4507 70.2954 36.6484 70.1489 36.79C70.0024 36.9268 69.8096 36.9951 69.5703 36.9951C69.3115 36.9951 69.1113 36.9219 68.9697 36.7754C68.833 36.6289 68.7646 36.436 68.7646 36.1968ZM68.9404 47V38.9141L70.2002 38.8115V47H68.9404ZM72.1191 39.8882V38.8555H73.0933V37.4272L74.353 37.2515V38.8555H76.4844V39.8882H74.353V44.4658C74.353 44.9639 74.4678 45.3398 74.6973 45.5938C74.9268 45.8428 75.2368 45.9673 75.6274 45.9673C75.9985 45.9673 76.3647 45.9209 76.7261 45.8281V46.9121C76.2573 47.0439 75.7861 47.1074 75.3125 47.1025C73.833 47.1025 73.0933 46.2529 73.0933 44.5537V39.8882H72.1191ZM78.374 47V38.9141L79.5898 38.8115V39.3682C80.2979 38.9678 81.0278 38.7676 81.7798 38.7676C82.8198 38.7676 83.5791 39.041 84.0576 39.5879C84.9561 39.0361 85.8521 38.7627 86.7456 38.7676C87.6636 38.7676 88.3618 39.0044 88.8403 39.478C89.3237 39.9517 89.5654 40.6328 89.5654 41.5215V47H88.291V41.6753C88.291 41.1235 88.1396 40.6938 87.8369 40.3862C87.5391 40.0737 87.1045 39.9175 86.5332 39.9175C85.9229 39.9175 85.2783 40.0591 84.5996 40.3423V47H83.3398V41.646C83.3398 40.4937 82.749 39.9175 81.5674 39.9175C80.9082 39.9175 80.2637 40.0591 79.6338 40.3423V47H78.374ZM91.6089 42.9351C91.6089 41.5972 91.9287 40.5571 92.5684 39.8149C93.208 39.0728 94.0186 38.7017 95 38.7017C95.9912 38.7017 96.7529 38.9824 97.2852 39.5439C97.8174 40.1055 98.0835 40.916 98.0835 41.9756C98.0835 42.415 98.0737 42.7446 98.0542 42.9644H92.8687C92.8784 43.9653 93.1152 44.7148 93.5791 45.2129C94.043 45.7061 94.6753 45.9526 95.4761 45.9526C96.3647 45.9526 97.1948 45.7817 97.9663 45.4399V46.5679C97.1167 46.9292 96.2378 47.1074 95.3296 47.1025C94.1675 47.1025 93.2568 46.7583 92.5977 46.0698C91.9385 45.3813 91.6089 44.3364 91.6089 42.9351ZM92.9126 41.9609H96.7358C96.7358 40.501 96.1353 39.771 94.9341 39.771C94.4165 39.771 93.9697 39.9663 93.5938 40.3569C93.2178 40.7476 92.9907 41.2822 92.9126 41.9609ZM100.156 47V35.4644L101.416 35.3618V42.0049H102.156L104.866 38.8555H106.426L103.262 42.3638L106.711 47H105.137L102.273 43.1035H101.416V47H100.156ZM107.495 44.8979C107.495 44.1802 107.808 43.5942 108.433 43.1401C109.058 42.6812 109.971 42.4517 111.172 42.4517C111.65 42.4517 112.061 42.459 112.402 42.4736V41.5874C112.402 40.479 111.782 39.9224 110.542 39.9175C109.771 39.9175 108.975 40.0981 108.154 40.4595L107.891 39.3975C108.853 38.9775 109.797 38.7676 110.725 38.7676C111.653 38.7676 112.366 38.9946 112.864 39.4487C113.367 39.9028 113.618 40.5449 113.618 41.375V47H112.446V46.4287C111.704 46.8779 110.898 47.1025 110.029 47.1025C109.248 47.1025 108.63 46.9023 108.176 46.502C107.722 46.1016 107.495 45.5669 107.495 44.8979ZM108.835 44.7954C108.835 45.1665 108.96 45.4595 109.209 45.6743C109.458 45.8892 109.817 45.9966 110.286 45.9966C111.057 45.9966 111.763 45.8062 112.402 45.4253V43.5063C111.763 43.4868 111.343 43.4771 111.143 43.4771C110.342 43.4771 109.756 43.6016 109.385 43.8506C109.019 44.0996 108.835 44.4146 108.835 44.7954ZM115.676 43.1328C115.676 41.7607 116.05 40.6914 116.797 39.9248C117.549 39.1533 118.54 38.7676 119.771 38.7676C120.352 38.7676 120.811 38.8262 121.147 38.9434V35.4644L122.407 35.3618V47H121.177V46.458C120.576 46.8877 119.883 47.1025 119.097 47.1025C118.076 47.1025 117.251 46.7583 116.621 46.0698C115.991 45.3813 115.676 44.4023 115.676 43.1328ZM116.98 43.0229C116.98 43.9751 117.197 44.7026 117.632 45.2056C118.066 45.7036 118.65 45.9526 119.382 45.9526C120.012 45.9526 120.601 45.7817 121.147 45.4399V40.0127C120.605 39.9248 120.11 39.8784 119.661 39.8735C118.84 39.8735 118.188 40.1519 117.705 40.7085C117.222 41.2603 116.98 42.0317 116.98 43.0229ZM124.568 42.9351C124.568 41.5972 124.888 40.5571 125.527 39.8149C126.167 39.0728 126.978 38.7017 127.959 38.7017C128.95 38.7017 129.712 38.9824 130.244 39.5439C130.776 40.1055 131.042 40.916 131.042 41.9756C131.042 42.415 131.033 42.7446 131.013 42.9644H125.828C125.837 43.9653 126.074 44.7148 126.538 45.2129C127.002 45.7061 127.634 45.9526 128.435 45.9526C129.324 45.9526 130.154 45.7817 130.925 45.4399V46.5679C130.076 46.9292 129.197 47.1074 128.289 47.1025C127.126 47.1025 126.216 46.7583 125.557 46.0698C124.897 45.3813 124.568 44.3364 124.568 42.9351ZM125.872 41.9609H129.695C129.695 40.501 129.094 39.771 127.893 39.771C127.375 39.771 126.929 39.9663 126.553 40.3569C126.177 40.7476 125.95 41.2822 125.872 41.9609ZM133.115 47V38.9141L134.36 38.8115V39.7563C134.941 39.0972 135.518 38.7676 136.089 38.7676C136.411 38.7676 136.731 38.8018 137.048 38.8701L136.895 40.1299C136.572 40.042 136.262 39.998 135.964 39.998C135.476 39.998 134.946 40.2764 134.375 40.833V47H133.115Z" fill="#134273"/>
<rect x="145" y="35" width="36" height="15" rx="3" fill="#B1D5EC"/>
<path d="M153.889 45.9414V38.3096L154.729 38.2412V40.8682C155.188 40.6273 155.664 40.5085 156.159 40.5117C156.84 40.5117 157.38 40.7331 157.78 41.1758C158.181 41.6185 158.381 42.2695 158.381 43.1289C158.381 44.0436 158.12 44.763 157.6 45.2871C157.079 45.8079 156.389 46.0684 155.529 46.0684C154.93 46.0716 154.383 46.0293 153.889 45.9414ZM154.729 45.2578C154.995 45.2969 155.3 45.318 155.642 45.3213C156.195 45.3213 156.644 45.1455 156.989 44.7939C157.338 44.4391 157.512 43.9085 157.512 43.2021C157.512 41.9229 156.978 41.2816 155.91 41.2783C155.516 41.2783 155.122 41.3727 154.729 41.5615V45.2578ZM159.489 43.29C159.489 42.3981 159.702 41.7048 160.129 41.21C160.555 40.7152 161.096 40.4678 161.75 40.4678C162.411 40.4678 162.919 40.6549 163.273 41.0293C163.628 41.4036 163.806 41.944 163.806 42.6504C163.806 42.9434 163.799 43.1631 163.786 43.3096H160.329C160.336 43.9769 160.493 44.4766 160.803 44.8086C161.112 45.1374 161.534 45.3018 162.067 45.3018C162.66 45.3018 163.213 45.1878 163.728 44.96V45.7119C163.161 45.9528 162.575 46.0716 161.97 46.0684C161.195 46.0684 160.588 45.8389 160.148 45.3799C159.709 44.9209 159.489 44.2243 159.489 43.29ZM160.139 38.2705H161.086L162.189 39.8818H161.457L160.139 38.2705ZM160.358 42.6406H162.907C162.907 41.6673 162.507 41.1807 161.706 41.1807C161.361 41.1807 161.063 41.3109 160.812 41.5713C160.562 41.8317 160.41 42.1882 160.358 42.6406ZM164.699 41.2588V40.5703H165.349V39.6182L166.188 39.501V40.5703H167.609V41.2588H166.188V44.3105C166.188 44.6426 166.265 44.8932 166.418 45.0625C166.571 45.2285 166.778 45.3115 167.038 45.3115C167.285 45.3115 167.53 45.2806 167.771 45.2188V45.9414C167.458 46.0293 167.144 46.0716 166.828 46.0684C165.842 46.0684 165.349 45.502 165.349 44.3691V41.2588H164.699ZM168.469 44.5986C168.469 44.1201 168.677 43.7295 169.094 43.4268C169.51 43.1208 170.119 42.9678 170.92 42.9678C171.239 42.9678 171.512 42.9727 171.74 42.9824V42.3916C171.74 41.6527 171.327 41.2816 170.5 41.2783C169.986 41.2783 169.455 41.3988 168.908 41.6396L168.732 40.9316C169.374 40.6517 170.004 40.5117 170.622 40.5117C171.241 40.5117 171.716 40.6631 172.048 40.9658C172.383 41.2686 172.551 41.6966 172.551 42.25V46H171.77V45.6191C171.275 45.9186 170.738 46.0684 170.158 46.0684C169.637 46.0684 169.226 45.9349 168.923 45.668C168.62 45.401 168.469 45.0446 168.469 44.5986ZM169.362 44.5303C169.362 44.7777 169.445 44.973 169.611 45.1162C169.777 45.2594 170.017 45.3311 170.329 45.3311C170.843 45.3311 171.314 45.2041 171.74 44.9502V43.6709C171.314 43.6579 171.034 43.6514 170.9 43.6514C170.367 43.6514 169.976 43.7344 169.729 43.9004C169.484 44.0664 169.362 44.2764 169.362 44.5303Z" fill="#134273"/>
<defs>
<clipPath id="clip0_96_126">
<rect width="181" height="28" fill="white"/>
</clipPath>
</defs>
</svg>
