<svg width="181" height="53" viewBox="0 0 181 53" fill="none" xmlns="http://www.w3.org/2000/svg">
<g clip-path="url(#clip0_57_457)">
<rect width="181" height="53" fill="white"/>
<g clip-path="url(#clip1_57_457)">
<path d="M16.6717 0.329261C13.4642 0.329261 10.9286 1.38962 9.0525 3.49335C7.19763 5.59862 6.51074 8.77196 6.51074 12.5349C8.22945 12.2571 8.81043 12.149 10.7379 11.865C10.7379 6.72533 12.7123 3.99188 16.6717 3.99188C20.6522 3.99188 22.6554 6.76084 22.6554 12.2879C22.6554 17.8151 20.6522 20.584 16.6717 20.584C15.3842 20.584 15.2072 20.5454 14.658 20.3648L12.9786 23.6895C14.3811 24.188 14.7608 24.2451 16.6717 24.2451C19.8806 24.2451 22.4406 23.1863 24.3151 21.081C26.1911 18.9773 27.1246 16.0493 27.1246 12.2879C27.1246 8.525 26.1911 5.59862 24.3151 3.49335C22.439 1.38962 19.8822 0.329261 16.6717 0.329261ZM33.6651 7.3489L37.2599 21.4746H37.3219L40.8864 7.3489H45.2301L39.9801 23.9302H34.4473L29.1959 7.3489H33.6651ZM50.9702 14.0768H57.6574C57.5969 11.3557 56.5529 9.99592 54.5332 9.99592C53.4287 9.99592 52.5845 10.3139 52.0005 10.9529C51.4392 11.5903 51.0942 12.6322 50.9702 14.0768ZM50.9702 16.8519C51.0746 18.3815 51.5224 19.4974 52.3137 20.1997C53.1049 20.8788 54.2729 21.2199 55.8146 21.2199C57.0643 21.2199 58.6181 20.902 60.4715 20.263V23.5166C58.5757 24.0043 56.8555 24.2497 55.3138 24.2497C52.5845 24.2497 50.48 23.5274 49.0003 22.0812C47.5418 20.6149 46.8126 18.4664 46.8126 15.6403C46.8126 12.8328 47.4692 10.6967 48.7809 9.23038C50.0942 7.7641 51.9914 7.0294 54.4696 7.0294C59.2203 7.0294 61.5971 9.86781 61.5971 15.5446C61.5971 15.9691 61.5668 16.4043 61.5033 16.8519H50.9702ZM65.1223 7.3489H69.2798V10.5377H69.3419C70.0303 9.55914 70.9577 8.78431 72.1257 8.21014C73.3272 7.63306 74.6406 7.33873 75.9686 7.3489H76.5949V10.6334H75.9686C73.8232 10.6334 72.1968 11.1335 71.0923 12.1305C69.9879 13.1307 69.4357 14.5661 69.4357 16.4368V23.9302H65.1238V7.3489M84.6983 0.651842V9.26123H84.7618C86.2415 7.77334 87.8558 7.0294 89.6063 7.0294C91.5035 7.0294 92.8788 7.58195 93.7321 8.68861C94.5869 9.79372 95.0135 11.686 95.0135 14.3639V23.9302H90.9513V15.0014C90.9513 13.1523 90.7531 11.9299 90.3567 11.3341C89.9815 10.7399 89.2628 10.442 88.1992 10.442C87.3671 10.442 86.5743 10.8248 85.8239 11.5903C85.0735 12.3559 84.6983 13.1739 84.6983 14.0444V23.9302H80.5422V0.651842H84.6983ZM102.374 14.0768H109.064C109.001 11.3557 107.96 9.99592 105.939 9.99592C104.834 9.99592 103.99 10.3139 103.406 10.9529C102.843 11.5903 102.5 12.6322 102.374 14.0768ZM102.374 16.8519C102.48 18.3815 102.926 19.4974 103.719 20.1997C104.51 20.8788 105.677 21.2199 107.22 21.2199C108.47 21.2199 110.022 20.902 111.877 20.263V23.5166C109.981 24.0043 108.261 24.2497 106.719 24.2497C103.99 24.2497 101.885 23.5274 100.406 22.0812C98.9472 20.6149 98.2164 18.4664 98.2164 15.6403C98.2164 12.8328 98.873 10.6967 100.186 9.23038C101.5 7.7641 103.395 7.0294 105.875 7.0294C110.626 7.0294 113.001 9.86781 113.001 15.5446C113.001 15.9691 112.971 16.4043 112.909 16.8519H102.374ZM117.466 23.9302V7.3489H121.841V23.9302H117.466ZM137.527 0.651842H141.683V23.9302H137.809L137.745 21.8574H137.683C136.287 23.4518 134.641 24.2497 132.745 24.2497C130.869 24.2497 129.317 23.4842 128.087 21.9531C126.878 20.4019 126.274 18.2966 126.274 15.6403C126.274 12.8976 126.858 10.7815 128.024 9.29364C129.212 7.78414 130.786 7.0294 132.745 7.0294C134.515 7.0294 136.088 7.69926 137.465 9.03898H137.526L137.527 0.651842ZM130.4 15.6388C130.4 17.4462 130.724 18.8075 131.368 19.7212C132.014 20.6149 132.89 21.0609 133.995 21.0609C134.954 21.0609 135.786 20.7307 136.495 20.0731C137.225 19.4125 137.589 18.6578 137.589 17.8073V13.4702C137.589 12.6213 137.225 11.865 136.495 11.2075C135.818 10.5612 134.922 10.2072 133.995 10.2197C131.598 10.2197 130.4 12.0256 130.4 15.6403M156.943 7.3489H160.881L160.945 9.42176H161.007C162.444 7.82737 164.111 7.0294 166.009 7.0294C167.904 7.0294 169.279 7.58195 170.134 8.68861C170.989 9.77211 171.416 11.5903 171.416 14.1401V23.9302H167.352V14.4596C167.352 12.8652 167.155 11.7817 166.759 11.2075C166.363 10.6118 165.644 10.3139 164.601 10.3139C163.747 10.3139 162.945 10.6858 162.196 11.4298C161.465 12.1737 161.1 12.9717 161.1 13.8221V23.9318H156.943V7.3489ZM176.623 23.9302V0.0144043H181V23.9302H176.623Z" fill="#134273"/>
<path d="M9.03427 28.0003L17.4614 11.8157L0.000488281 14.6865L9.04487 18.0512L9.03427 28.0003Z" fill="#DF6F00"/>
<path d="M149.387 23.9225C150.763 23.9225 151.878 22.9357 151.878 21.7184C151.878 20.5012 150.763 19.5144 149.387 19.5144C148.012 19.5144 146.897 20.5012 146.897 21.7184C146.897 22.9357 148.012 23.9225 149.387 23.9225Z" fill="#B1D5EC"/>
<path d="M119.647 3.82516C120.84 3.82516 121.808 2.96898 121.808 1.91283C121.808 0.856669 120.84 0.000488281 119.647 0.000488281C118.454 0.000488281 117.487 0.856669 117.487 1.91283C117.487 2.96898 118.454 3.82516 119.647 3.82516Z" fill="#134273"/>
</g>
<path d="M6.74219 48V36.3516H8.13281V41.4062H13.4609V36.3516H14.875V48H13.4609V42.6562H8.13281V48H6.74219ZM17.4922 43.6641C17.4922 42.237 17.8333 41.1276 18.5156 40.3359C19.1979 39.5443 20.0625 39.1484 21.1094 39.1484C22.1667 39.1484 22.9792 39.4479 23.5469 40.0469C24.1146 40.6458 24.3984 41.5104 24.3984 42.6406C24.3984 43.1094 24.388 43.4609 24.3672 43.6953H18.8359C18.8464 44.763 19.099 45.5625 19.5938 46.0938C20.0885 46.6198 20.763 46.8828 21.6172 46.8828C22.5651 46.8828 23.4505 46.7005 24.2734 46.3359V47.5391C23.3672 47.9245 22.4297 48.1146 21.4609 48.1094C20.2214 48.1094 19.25 47.7422 18.5469 47.0078C17.8438 46.2734 17.4922 45.1589 17.4922 43.6641ZM18.8828 42.625H22.9609C22.9609 41.0677 22.3203 40.2891 21.0391 40.2891C20.487 40.2891 20.0104 40.4974 19.6094 40.9141C19.2083 41.3307 18.9661 41.901 18.8828 42.625ZM25.8281 40.4141V39.3125H26.8672V37.7891L28.2109 37.6016V39.3125H30.4844V40.4141H28.2109V45.2969C28.2109 45.8281 28.3333 46.2292 28.5781 46.5C28.8229 46.7656 29.1536 46.8984 29.5703 46.8984C29.9661 46.8984 30.3568 46.849 30.7422 46.75V47.9062C30.2422 48.0469 29.7396 48.1146 29.2344 48.1094C27.6562 48.1094 26.8672 47.2031 26.8672 45.3906V40.4141H25.8281ZM35.5 45.7578C35.5 44.9922 35.8333 44.3672 36.5 43.8828C37.1667 43.3932 38.1406 43.1484 39.4219 43.1484C39.9323 43.1484 40.3698 43.1562 40.7344 43.1719V42.2266C40.7344 41.0443 40.0729 40.4505 38.75 40.4453C37.9271 40.4453 37.0781 40.638 36.2031 41.0234L35.9219 39.8906C36.9479 39.4427 37.9557 39.2188 38.9453 39.2188C39.9349 39.2188 40.6953 39.4609 41.2266 39.9453C41.763 40.4297 42.0312 41.1146 42.0312 42V48H40.7812V47.3906C39.9896 47.8698 39.1302 48.1094 38.2031 48.1094C37.3698 48.1094 36.7109 47.8958 36.2266 47.4688C35.7422 47.0417 35.5 46.4714 35.5 45.7578ZM36.9297 45.6484C36.9297 46.0443 37.0625 46.3568 37.3281 46.5859C37.5938 46.8151 37.9766 46.9297 38.4766 46.9297C39.2995 46.9297 40.0521 46.7266 40.7344 46.3203V44.2734C40.0521 44.2526 39.6042 44.2422 39.3906 44.2422C38.5365 44.2422 37.9115 44.375 37.5156 44.6406C37.125 44.9062 36.9297 45.2422 36.9297 45.6484ZM44.75 48V35.6953L46.0938 35.5859V48H44.75ZM48.0938 49.1875C48.0938 48.8021 48.2292 48.4323 48.5 48.0781C48.7708 47.7292 49.1042 47.4688 49.5 47.2969V47.2188C49.0417 46.9844 48.8125 46.6198 48.8125 46.125C48.8125 45.8698 48.8958 45.6302 49.0625 45.4062C49.2344 45.1823 49.4661 45.0182 49.7578 44.9141V44.8672C48.8724 44.4089 48.4297 43.6068 48.4297 42.4609C48.4297 41.4453 48.7344 40.6536 49.3438 40.0859C49.9583 39.5182 50.8047 39.2344 51.8828 39.2344C52.4141 39.2344 52.8568 39.2812 53.2109 39.375H55.8828V40.3828H54.25V40.4297C54.8177 40.8255 55.1016 41.4505 55.1016 42.3047C55.1016 43.2839 54.7917 44.0312 54.1719 44.5469C53.5521 45.0573 52.6719 45.3125 51.5312 45.3125C51.1667 45.3125 50.8411 45.2812 50.5547 45.2188C50.3932 45.2604 50.2552 45.349 50.1406 45.4844C50.0312 45.6146 49.9766 45.75 49.9766 45.8906C49.9766 46.3594 50.3411 46.599 51.0703 46.6094L53.4062 46.6875C54.9844 46.7292 55.7734 47.3646 55.7734 48.5938C55.7734 49.4583 55.4167 50.151 54.7031 50.6719C53.9948 51.1927 52.9583 51.4531 51.5938 51.4531C50.5052 51.4531 49.6484 51.2474 49.0234 50.8359C48.4036 50.4297 48.0938 49.8802 48.0938 49.1875ZM49.3047 48.9609C49.3047 49.3984 49.5156 49.7422 49.9375 49.9922C50.3594 50.2422 50.9557 50.3672 51.7266 50.3672C53.638 50.3672 54.5911 49.862 54.5859 48.8516C54.5859 48.5339 54.4818 48.2969 54.2734 48.1406C54.0651 47.9844 53.7214 47.8958 53.2422 47.875L50.2656 47.7266C49.625 47.9505 49.3047 48.362 49.3047 48.9609ZM49.7734 42.3359C49.7734 43.6484 50.4141 44.3047 51.6953 44.3047C52.4089 44.3047 52.9297 44.1432 53.2578 43.8203C53.5911 43.4922 53.7578 42.9609 53.7578 42.2266C53.7578 41.5964 53.5833 41.1172 53.2344 40.7891C52.8906 40.4557 52.4089 40.2891 51.7891 40.2891C51.1484 40.2891 50.651 40.4635 50.2969 40.8125C49.9479 41.1562 49.7734 41.6641 49.7734 42.3359ZM57.1953 43.7734C57.1953 42.3776 57.5833 41.2578 58.3594 40.4141C59.1406 39.5703 60.0911 39.1484 61.2109 39.1484C62.3932 39.1484 63.3255 39.526 64.0078 40.2812C64.6901 41.0312 65.0312 42.1224 65.0312 43.5547C65.0312 44.9505 64.6354 46.0677 63.8438 46.9062C63.0573 47.7396 62.1042 48.1562 60.9844 48.1562C59.8021 48.1562 58.875 47.7812 58.2031 47.0312C57.5312 46.276 57.1953 45.1901 57.1953 43.7734ZM58.5859 43.6953C58.5859 44.763 58.8047 45.5755 59.2422 46.1328C59.6797 46.6849 60.3073 46.9609 61.125 46.9609C61.8698 46.9609 62.4714 46.6589 62.9297 46.0547C63.3932 45.4505 63.625 44.638 63.625 43.6172C63.625 42.5495 63.4062 41.7422 62.9688 41.1953C62.5312 40.6432 61.9062 40.3672 61.0938 40.3672C60.3385 40.3672 59.7318 40.6667 59.2734 41.2656C58.8151 41.8594 58.5859 42.6693 58.5859 43.6953ZM67.3281 48V39.375L68.6562 39.2656V40.2734C69.276 39.5703 69.8906 39.2188 70.5 39.2188C70.8438 39.2188 71.1849 39.2552 71.5234 39.3281L71.3594 40.6719C71.0156 40.5781 70.6849 40.5312 70.3672 40.5312C69.8464 40.5312 69.2812 40.8281 68.6719 41.4219V48H67.3281ZM73.0156 36.4766C73.0156 36.2005 73.0885 35.987 73.2344 35.8359C73.3854 35.6797 73.599 35.6016 73.875 35.6016C74.1562 35.6016 74.3672 35.6797 74.5078 35.8359C74.6536 35.987 74.7266 36.2005 74.7266 36.4766C74.7266 36.7474 74.6484 36.9583 74.4922 37.1094C74.3359 37.2552 74.1302 37.3281 73.875 37.3281C73.599 37.3281 73.3854 37.25 73.2344 37.0938C73.0885 36.9375 73.0156 36.7318 73.0156 36.4766ZM73.2031 48V39.375L74.5469 39.2656V48H73.2031ZM76.5938 40.4141V39.3125H77.6328V37.7891L78.9766 37.6016V39.3125H81.25V40.4141H78.9766V45.2969C78.9766 45.8281 79.099 46.2292 79.3438 46.5C79.5885 46.7656 79.9193 46.8984 80.3359 46.8984C80.7318 46.8984 81.1224 46.849 81.5078 46.75V47.9062C81.0078 48.0469 80.5052 48.1146 80 48.1094C78.4219 48.1094 77.6328 47.2031 77.6328 45.3906V40.4141H76.5938ZM83.2656 48V39.375L84.5625 39.2656V39.8594C85.3177 39.4323 86.0964 39.2188 86.8984 39.2188C88.0078 39.2188 88.8177 39.5104 89.3281 40.0938C90.2865 39.5052 91.2422 39.2135 92.1953 39.2188C93.1745 39.2188 93.9193 39.4714 94.4297 39.9766C94.9453 40.4818 95.2031 41.2083 95.2031 42.1562V48H93.8438V42.3203C93.8438 41.7318 93.6823 41.2734 93.3594 40.9453C93.0417 40.612 92.5781 40.4453 91.9688 40.4453C91.3177 40.4453 90.6302 40.5964 89.9062 40.8984V48H88.5625V42.2891C88.5625 41.0599 87.9323 40.4453 86.6719 40.4453C85.9688 40.4453 85.2812 40.5964 84.6094 40.8984V48H83.2656ZM97.3828 43.6641C97.3828 42.237 97.724 41.1276 98.4062 40.3359C99.0885 39.5443 99.9531 39.1484 101 39.1484C102.057 39.1484 102.87 39.4479 103.438 40.0469C104.005 40.6458 104.289 41.5104 104.289 42.6406C104.289 43.1094 104.279 43.4609 104.258 43.6953H98.7266C98.737 44.763 98.9896 45.5625 99.4844 46.0938C99.9792 46.6198 100.654 46.8828 101.508 46.8828C102.456 46.8828 103.341 46.7005 104.164 46.3359V47.5391C103.258 47.9245 102.32 48.1146 101.352 48.1094C100.112 48.1094 99.1406 47.7422 98.4375 47.0078C97.7344 46.2734 97.3828 45.1589 97.3828 43.6641ZM98.7734 42.625H102.852C102.852 41.0677 102.211 40.2891 100.93 40.2891C100.378 40.2891 99.901 40.4974 99.5 40.9141C99.099 41.3307 98.8568 41.901 98.7734 42.625ZM106.5 48V35.6953L107.844 35.5859V42.6719H108.633L111.523 39.3125H113.188L109.812 43.0547L113.492 48H111.812L108.758 43.8438H107.844V48H106.5ZM114.328 45.7578C114.328 44.9922 114.661 44.3672 115.328 43.8828C115.995 43.3932 116.969 43.1484 118.25 43.1484C118.76 43.1484 119.198 43.1562 119.562 43.1719V42.2266C119.562 41.0443 118.901 40.4505 117.578 40.4453C116.755 40.4453 115.906 40.638 115.031 41.0234L114.75 39.8906C115.776 39.4427 116.784 39.2188 117.773 39.2188C118.763 39.2188 119.523 39.4609 120.055 39.9453C120.591 40.4297 120.859 41.1146 120.859 42V48H119.609V47.3906C118.818 47.8698 117.958 48.1094 117.031 48.1094C116.198 48.1094 115.539 47.8958 115.055 47.4688C114.57 47.0417 114.328 46.4714 114.328 45.7578ZM115.758 45.6484C115.758 46.0443 115.891 46.3568 116.156 46.5859C116.422 46.8151 116.805 46.9297 117.305 46.9297C118.128 46.9297 118.88 46.7266 119.562 46.3203V44.2734C118.88 44.2526 118.432 44.2422 118.219 44.2422C117.365 44.2422 116.74 44.375 116.344 44.6406C115.953 44.9062 115.758 45.2422 115.758 45.6484ZM123.055 43.875C123.055 42.4115 123.453 41.2708 124.25 40.4531C125.052 39.6302 126.109 39.2188 127.422 39.2188C128.042 39.2188 128.531 39.2812 128.891 39.4062V35.6953L130.234 35.5859V48H128.922V47.4219C128.281 47.8802 127.542 48.1094 126.703 48.1094C125.615 48.1094 124.734 47.7422 124.062 47.0078C123.391 46.2734 123.055 45.2292 123.055 43.875ZM124.445 43.7578C124.445 44.7734 124.677 45.5495 125.141 46.0859C125.604 46.6172 126.227 46.8828 127.008 46.8828C127.68 46.8828 128.307 46.7005 128.891 46.3359V40.5469C128.312 40.4531 127.784 40.4036 127.305 40.3984C126.43 40.3984 125.734 40.6953 125.219 41.2891C124.703 41.8776 124.445 42.7005 124.445 43.7578ZM132.539 43.6641C132.539 42.237 132.88 41.1276 133.562 40.3359C134.245 39.5443 135.109 39.1484 136.156 39.1484C137.214 39.1484 138.026 39.4479 138.594 40.0469C139.161 40.6458 139.445 41.5104 139.445 42.6406C139.445 43.1094 139.435 43.4609 139.414 43.6953H133.883C133.893 44.763 134.146 45.5625 134.641 46.0938C135.135 46.6198 135.81 46.8828 136.664 46.8828C137.612 46.8828 138.497 46.7005 139.32 46.3359V47.5391C138.414 47.9245 137.477 48.1146 136.508 48.1094C135.268 48.1094 134.297 47.7422 133.594 47.0078C132.891 46.2734 132.539 45.1589 132.539 43.6641ZM133.93 42.625H138.008C138.008 41.0677 137.367 40.2891 136.086 40.2891C135.534 40.2891 135.057 40.4974 134.656 40.9141C134.255 41.3307 134.013 41.901 133.93 42.625ZM141.656 48V39.375L142.984 39.2656V40.2734C143.604 39.5703 144.219 39.2188 144.828 39.2188C145.172 39.2188 145.513 39.2552 145.852 39.3281L145.688 40.6719C145.344 40.5781 145.013 40.5312 144.695 40.5312C144.174 40.5312 143.609 40.8281 143 41.4219V48H141.656Z" fill="#134273"/>
</g>
<defs>
<clipPath id="clip0_57_457">
<rect width="181" height="53" fill="white"/>
</clipPath>
<clipPath id="clip1_57_457">
<rect width="181" height="28" fill="white"/>
</clipPath>
</defs>
</svg>
