<svg width="901" height="309" viewBox="0 0 901 309" fill="none" xmlns="http://www.w3.org/2000/svg">
<path d="M119.856 52.2939C106.994 52.2939 96.825 56.4621 89.3018 64.7316C81.8634 73.0072 79.1089 85.4813 79.1089 100.273C86.0012 99.1809 88.331 98.7562 96.0606 97.6398C96.0606 77.4362 103.978 66.6913 119.856 66.6913C135.819 66.6913 143.852 77.5758 143.852 99.3023C143.852 121.029 135.819 131.913 119.856 131.913C114.693 131.913 113.983 131.762 111.781 131.052L105.046 144.12C110.67 146.08 112.193 146.305 119.856 146.305C132.724 146.305 142.99 142.142 150.507 133.867C158.03 125.597 161.774 114.088 161.774 99.3023C161.774 84.5105 158.03 73.0072 150.507 64.7316C142.984 56.4621 132.73 52.2939 119.856 52.2939ZM188.002 79.8874L202.418 135.414H202.667L216.961 79.8874H234.38L213.327 145.067H191.139L170.08 79.8874H188.002ZM257.398 106.334H284.215C283.972 95.6378 279.786 90.2925 271.686 90.2925C267.257 90.2925 263.872 91.5424 261.53 94.0542C259.279 96.56 257.896 100.655 257.398 106.334ZM257.398 117.243C257.817 123.255 259.613 127.642 262.786 130.403C265.959 133.072 270.643 134.413 276.825 134.413C281.837 134.413 288.068 133.163 295.5 130.651V143.441C287.898 145.358 281 146.323 274.817 146.323C263.872 146.323 255.433 143.483 249.499 137.798C243.65 132.035 240.726 123.589 240.726 112.48C240.726 101.444 243.359 93.0471 248.619 87.2833C253.885 81.5195 261.494 78.6315 271.432 78.6315C290.482 78.6315 300.014 89.789 300.014 112.104C300.014 113.772 299.893 115.483 299.638 117.243H257.398ZM314.15 79.8874H330.823V92.4222H331.072C333.832 88.5756 337.551 85.5298 342.235 83.2728C347.054 81.0044 352.32 79.8474 357.646 79.8874H360.158V92.7983H357.646C349.043 92.7983 342.52 94.7641 338.091 98.6835C333.662 102.615 331.448 108.257 331.448 115.611V145.067H314.157V79.8874M392.653 53.562V87.4046H392.908C398.842 81.5558 405.316 78.6315 412.335 78.6315C419.943 78.6315 425.458 80.8035 428.88 85.1536C432.308 89.4977 434.019 96.9361 434.019 107.463V145.067H417.729V109.968C417.729 102.7 416.934 97.8947 415.345 95.5528C413.84 93.2169 410.958 92.0459 406.693 92.0459C403.356 92.0459 400.177 93.5506 397.167 96.5599C394.158 99.5692 392.653 102.785 392.653 106.207V145.067H375.987V53.562H392.653ZM463.536 106.334H490.365C490.11 95.6378 485.936 90.2925 477.83 90.2925C473.401 90.2925 470.016 91.5424 467.674 94.0542C465.417 96.56 464.039 100.655 463.536 106.334ZM463.536 117.243C463.961 123.255 465.75 127.642 468.93 130.403C472.103 133.072 476.781 134.413 482.969 134.413C487.98 134.413 494.205 133.163 501.644 130.651V143.441C494.042 145.358 487.143 146.323 480.961 146.323C470.016 146.323 461.576 143.483 455.643 137.798C449.794 132.035 446.863 123.589 446.863 112.48C446.863 101.444 449.497 93.0471 454.763 87.2833C460.029 81.5195 467.631 78.6315 477.575 78.6315C496.626 78.6315 506.152 89.789 506.152 112.104C506.152 113.772 506.03 115.483 505.782 117.243H463.536ZM524.056 145.067V79.8874H541.602V145.067H524.056ZM604.506 53.562H621.173V145.067H605.635L605.38 136.919H605.131C599.531 143.186 592.93 146.323 585.328 146.323C577.805 146.323 571.58 143.313 566.647 137.295C561.8 131.197 559.379 122.922 559.379 112.48C559.379 101.699 561.721 93.3807 566.398 87.532C571.161 81.5983 577.471 78.6315 585.328 78.6315C592.427 78.6315 598.736 81.2646 604.257 86.5309H604.5L604.506 53.562ZM575.924 112.474C575.924 119.579 577.222 124.93 579.807 128.522C582.398 132.035 585.91 133.788 590.339 133.788C594.186 133.788 597.523 132.49 600.368 129.905C603.293 127.308 604.755 124.341 604.755 120.998V103.95C604.755 100.613 603.293 97.6399 600.368 95.0553C597.652 92.5146 594.058 91.1232 590.339 91.1723C580.729 91.1723 575.924 98.2709 575.924 112.48M682.366 79.8874H698.159L698.414 88.0356H698.662C704.426 81.7682 711.112 78.6315 718.72 78.6315C726.323 78.6315 731.838 80.8035 735.266 85.1536C738.693 89.4128 740.405 96.56 740.405 106.583V145.067H724.108V107.839C724.108 101.571 723.319 97.3122 721.73 95.0553C720.14 92.7133 717.258 91.5424 713.078 91.5424C709.65 91.5424 706.434 93.0045 703.431 95.9289C700.501 98.8533 699.039 101.99 699.039 105.333V145.073H682.366V79.8874ZM761.288 145.067V51.0563H778.84V145.067H761.288Z" fill="#134273"/>
<path d="M89.2289 161.066L123.023 97.4457L53.002 108.731L89.2714 121.957L89.2289 161.066Z" fill="#DF6F00"/>
<path d="M652.067 145.036C657.582 145.036 662.053 141.157 662.053 136.372C662.053 131.588 657.582 127.709 652.067 127.709C646.551 127.709 642.08 131.588 642.08 136.372C642.08 141.157 646.551 145.036 652.067 145.036Z" fill="#B1D5EC"/>
<path d="M532.805 66.0361C537.59 66.0361 541.468 62.6705 541.468 58.5189C541.468 54.3673 537.59 51.0017 532.805 51.0017C528.02 51.0017 524.141 54.3673 524.141 58.5189C524.141 62.6705 528.02 66.0361 532.805 66.0361Z" fill="#134273"/>
<path d="M54.3618 242V200.031H59.3931V218.25H78.6118V200.031H83.6743V242H78.6118V222.75H59.3931V242H54.3618ZM89.9431 226.375C89.9431 223.771 90.2764 221.448 90.9431 219.406C91.6097 217.365 92.5368 215.667 93.7243 214.312C94.9326 212.938 96.3285 211.896 97.9118 211.188C99.516 210.479 101.214 210.125 103.006 210.125C104.881 210.125 106.558 210.396 108.037 210.938C109.516 211.458 110.766 212.26 111.787 213.344C112.808 214.406 113.578 215.719 114.099 217.281C114.641 218.823 114.912 220.625 114.912 222.688C114.912 223.104 114.912 223.458 114.912 223.75C114.912 224.021 114.912 224.312 114.912 224.625C114.912 224.938 114.901 225.26 114.881 225.594C114.86 225.906 114.828 226.208 114.787 226.5H94.8181C94.8181 228.458 95.0576 230.167 95.5368 231.625C96.0368 233.083 96.7347 234.281 97.6306 235.219C98.5264 236.156 99.5785 236.854 100.787 237.312C102.016 237.75 103.381 237.969 104.881 237.969C105.776 237.969 106.62 237.927 107.412 237.844C108.224 237.76 109.016 237.646 109.787 237.5C110.558 237.333 111.328 237.125 112.099 236.875C112.87 236.625 113.641 236.323 114.412 235.969V240.344C113.558 240.719 112.745 241.031 111.974 241.281C111.203 241.51 110.422 241.708 109.631 241.875C108.839 242.042 108.006 242.167 107.131 242.25C106.256 242.333 105.308 242.375 104.287 242.375C102.12 242.375 100.151 242.062 98.3806 241.438C96.6097 240.792 95.0889 239.823 93.8181 238.531C92.5681 237.219 91.6097 235.552 90.9431 233.531C90.2764 231.49 89.9431 229.104 89.9431 226.375ZM95.0056 222.594H109.724C109.724 221.219 109.578 220.01 109.287 218.969C108.995 217.906 108.547 217.021 107.943 216.312C107.339 215.604 106.599 215.083 105.724 214.75C104.849 214.396 103.86 214.219 102.756 214.219C101.776 214.219 100.86 214.417 100.006 214.812C99.1514 215.188 98.3701 215.74 97.6618 216.469C96.9535 217.198 96.3701 218.083 95.9118 219.125C95.4743 220.167 95.1722 221.323 95.0056 222.594ZM116.868 214.688V210.719H120.649V205.188L125.431 204.5V210.719H133.618V214.688H125.431V232.281C125.431 233.26 125.545 234.115 125.774 234.844C126.024 235.552 126.368 236.146 126.806 236.625C127.264 237.083 127.785 237.438 128.368 237.688C128.972 237.917 129.639 238.031 130.368 238.031C130.743 238.031 131.097 238.021 131.431 238C131.785 237.979 132.118 237.948 132.431 237.906C132.764 237.865 133.108 237.812 133.462 237.75C133.837 237.688 134.212 237.615 134.587 237.531V241.688C134.066 241.812 133.576 241.917 133.118 242C132.681 242.083 132.243 242.156 131.806 242.219C131.389 242.281 130.972 242.323 130.556 242.344C130.139 242.365 129.67 242.375 129.149 242.375C127.92 242.375 126.795 242.208 125.774 241.875C124.774 241.542 123.878 240.99 123.087 240.219C122.316 239.448 121.712 238.438 121.274 237.188C120.858 235.917 120.649 234.385 120.649 232.594V214.688H116.868ZM143.687 242L156.937 200.031H164.874L177.718 242H172.093L168.718 230.688H152.312L148.999 242H143.687ZM153.593 226.312H167.499L160.906 203.906H160.312L153.593 226.312ZM180.831 242V197.656L185.674 197.25V242H180.831ZM189.756 246.281C189.756 245.594 189.881 244.896 190.131 244.188C190.381 243.5 190.735 242.854 191.193 242.25C191.672 241.667 192.235 241.125 192.881 240.625C193.526 240.125 194.183 239.729 194.849 239.438V239.188C194.516 239.021 194.183 238.812 193.849 238.562C193.537 238.292 193.276 237.99 193.068 237.656C192.86 237.302 192.693 236.938 192.568 236.562C192.443 236.167 192.381 235.74 192.381 235.281C192.381 234.802 192.453 234.344 192.599 233.906C192.745 233.448 192.964 233.031 193.256 232.656C193.568 232.281 193.933 231.938 194.349 231.625C194.787 231.292 195.256 231.042 195.756 230.875V230.688C195.026 230.312 194.36 229.854 193.756 229.312C193.172 228.771 192.672 228.135 192.256 227.406C191.86 226.677 191.537 225.865 191.287 224.969C191.058 224.073 190.943 223.094 190.943 222.031C190.943 220.24 191.224 218.625 191.787 217.188C192.349 215.729 193.172 214.5 194.256 213.5C195.339 212.479 196.662 211.708 198.224 211.188C199.787 210.646 201.526 210.375 203.443 210.375C203.818 210.375 204.224 210.385 204.662 210.406C205.12 210.427 205.558 210.458 205.974 210.5C206.412 210.542 206.818 210.604 207.193 210.688C207.589 210.75 207.933 210.823 208.224 210.906H217.849V214.531H211.943V214.75C212.422 215.042 212.839 215.427 213.193 215.906C213.568 216.365 213.891 216.885 214.162 217.469C214.433 218.031 214.641 218.656 214.787 219.344C214.953 220.031 215.037 220.74 215.037 221.469C215.037 223.26 214.745 224.833 214.162 226.188C213.578 227.521 212.735 228.646 211.631 229.562C210.526 230.479 209.172 231.177 207.568 231.656C205.964 232.115 204.162 232.344 202.162 232.344C201.828 232.344 201.506 232.333 201.193 232.312C200.901 232.292 200.599 232.271 200.287 232.25C199.995 232.229 199.714 232.188 199.443 232.125C199.172 232.062 198.901 232 198.631 231.938C198.339 232.021 198.068 232.156 197.818 232.344C197.589 232.51 197.381 232.698 197.193 232.906C197.006 233.115 196.86 233.354 196.756 233.625C196.651 233.875 196.599 234.125 196.599 234.375C196.599 234.75 196.672 235.104 196.818 235.438C196.964 235.75 197.183 236.031 197.474 236.281C197.787 236.51 198.193 236.688 198.693 236.812C199.214 236.938 199.818 237 200.506 237L208.881 237.25C210.339 237.292 211.61 237.49 212.693 237.844C213.776 238.177 214.672 238.646 215.381 239.25C216.089 239.854 216.61 240.562 216.943 241.375C217.276 242.167 217.443 243.083 217.443 244.125C217.443 245.625 217.131 247 216.506 248.25C215.901 249.5 214.964 250.594 213.693 251.531C212.443 252.469 210.87 253.188 208.974 253.688C207.078 254.208 204.891 254.469 202.412 254.469C200.453 254.469 198.683 254.271 197.099 253.875C195.516 253.5 194.183 252.948 193.099 252.219C192.016 251.51 191.183 250.646 190.599 249.625C190.037 248.604 189.756 247.49 189.756 246.281ZM194.162 245.469C194.162 246.24 194.349 246.927 194.724 247.531C195.12 248.156 195.683 248.688 196.412 249.125C197.162 249.583 198.068 249.927 199.131 250.156C200.214 250.385 201.453 250.5 202.849 250.5C204.641 250.5 206.183 250.375 207.474 250.125C208.787 249.875 209.86 249.5 210.693 249C211.526 248.521 212.141 247.948 212.537 247.281C212.953 246.615 213.162 245.875 213.162 245.062C213.162 244.5 213.078 244.01 212.912 243.594C212.745 243.177 212.464 242.823 212.068 242.531C211.693 242.26 211.193 242.042 210.568 241.875C209.964 241.708 209.214 241.604 208.318 241.562L197.599 241.031C197.037 241.24 196.547 241.49 196.131 241.781C195.714 242.052 195.349 242.365 195.037 242.719C194.745 243.094 194.526 243.51 194.381 243.969C194.235 244.448 194.162 244.948 194.162 245.469ZM195.818 221.594C195.818 222.865 195.985 223.958 196.318 224.875C196.672 225.792 197.151 226.531 197.756 227.094C198.381 227.635 199.11 228.042 199.943 228.312C200.776 228.562 201.703 228.688 202.724 228.688C203.995 228.688 205.089 228.552 206.006 228.281C206.943 227.99 207.714 227.552 208.318 226.969C208.943 226.365 209.401 225.583 209.693 224.625C210.006 223.667 210.162 222.521 210.162 221.188C210.162 220.042 209.995 219.031 209.662 218.156C209.349 217.281 208.881 216.562 208.256 216C207.651 215.417 206.912 214.979 206.037 214.688C205.162 214.375 204.172 214.219 203.068 214.219C201.964 214.219 200.953 214.375 200.037 214.688C199.141 214.979 198.37 215.438 197.724 216.062C197.099 216.667 196.62 217.427 196.287 218.344C195.974 219.26 195.818 220.344 195.818 221.594ZM219.368 226.781C219.368 224.26 219.753 221.958 220.524 219.875C221.295 217.771 222.347 216.01 223.681 214.594C225.035 213.156 226.587 212.052 228.337 211.281C230.087 210.51 231.941 210.125 233.899 210.125C235.983 210.125 237.878 210.469 239.587 211.156C241.295 211.844 242.743 212.854 243.931 214.188C245.139 215.5 246.066 217.146 246.712 219.125C247.358 221.104 247.681 223.396 247.681 226C247.681 228.521 247.295 230.812 246.524 232.875C245.753 234.938 244.691 236.698 243.337 238.156C242.003 239.615 240.451 240.719 238.681 241.469C236.91 242.198 235.045 242.562 233.087 242.562C231.003 242.562 229.118 242.24 227.431 241.594C225.743 240.927 224.295 239.927 223.087 238.594C221.899 237.24 220.983 235.573 220.337 233.594C219.691 231.594 219.368 229.323 219.368 226.781ZM224.431 226.5C224.431 228.417 224.628 230.115 225.024 231.594C225.441 233.073 226.045 234.302 226.837 235.281C227.628 236.26 228.587 237 229.712 237.5C230.837 237.979 232.128 238.219 233.587 238.219C234.899 238.219 236.108 237.948 237.212 237.406C238.337 236.844 239.306 236.042 240.118 235C240.931 233.958 241.545 232.688 241.962 231.188C242.399 229.688 242.618 228.021 242.618 226.188C242.618 224.271 242.41 222.583 241.993 221.125C241.597 219.646 241.003 218.417 240.212 217.438C239.42 216.438 238.462 215.698 237.337 215.219C236.212 214.719 234.92 214.469 233.462 214.469C232.149 214.469 230.931 214.74 229.806 215.281C228.701 215.823 227.743 216.615 226.931 217.656C226.118 218.698 225.493 219.969 225.056 221.469C224.639 222.948 224.431 224.625 224.431 226.5ZM252.793 242V210.906L257.574 210.5V214.156C258.178 213.469 258.751 212.885 259.293 212.406C259.856 211.906 260.408 211.51 260.949 211.219C261.491 210.927 262.033 210.708 262.574 210.562C263.137 210.396 263.689 210.312 264.231 210.312C264.564 210.312 264.876 210.323 265.168 210.344C265.481 210.365 265.772 210.385 266.043 210.406C266.335 210.427 266.626 210.479 266.918 210.562C267.231 210.625 267.553 210.698 267.887 210.781L267.324 215.562C266.991 215.479 266.668 215.406 266.356 215.344C266.064 215.281 265.772 215.229 265.481 215.188C265.21 215.146 264.928 215.115 264.637 215.094C264.366 215.073 264.064 215.062 263.731 215.062C263.21 215.062 262.699 215.125 262.199 215.25C261.72 215.375 261.241 215.573 260.762 215.844C260.303 216.094 259.814 216.427 259.293 216.844C258.793 217.24 258.241 217.729 257.637 218.312V242H252.793ZM270.062 200.469C270.062 199.99 270.135 199.552 270.281 199.156C270.447 198.74 270.666 198.406 270.937 198.156C271.208 197.906 271.531 197.708 271.906 197.562C272.301 197.396 272.739 197.312 273.218 197.312C273.697 197.312 274.124 197.396 274.499 197.562C274.874 197.708 275.187 197.906 275.437 198.156C275.708 198.406 275.916 198.729 276.062 199.125C276.208 199.5 276.281 199.948 276.281 200.469C276.281 200.948 276.208 201.375 276.062 201.75C275.916 202.125 275.708 202.448 275.437 202.719C275.187 202.969 274.864 203.167 274.468 203.312C274.093 203.458 273.676 203.531 273.218 203.531C272.739 203.531 272.301 203.458 271.906 203.312C271.531 203.167 271.208 202.969 270.937 202.719C270.666 202.448 270.447 202.125 270.281 201.75C270.135 201.375 270.062 200.948 270.062 200.469ZM270.781 242V210.906L275.624 210.5V242H270.781ZM279.893 214.688V210.719H283.674V205.188L288.456 204.5V210.719H296.643V214.688H288.456V232.281C288.456 233.26 288.57 234.115 288.799 234.844C289.049 235.552 289.393 236.146 289.831 236.625C290.289 237.083 290.81 237.438 291.393 237.688C291.997 237.917 292.664 238.031 293.393 238.031C293.768 238.031 294.122 238.021 294.456 238C294.81 237.979 295.143 237.948 295.456 237.906C295.789 237.865 296.133 237.812 296.487 237.75C296.862 237.688 297.237 237.615 297.612 237.531V241.688C297.091 241.812 296.601 241.917 296.143 242C295.706 242.083 295.268 242.156 294.831 242.219C294.414 242.281 293.997 242.323 293.581 242.344C293.164 242.365 292.695 242.375 292.174 242.375C290.945 242.375 289.82 242.208 288.799 241.875C287.799 241.542 286.903 240.99 286.112 240.219C285.341 239.448 284.737 238.438 284.299 237.188C283.883 235.917 283.674 234.385 283.674 232.594V214.688H279.893ZM300.756 242V210.906L305.412 210.5V212.625C306.183 212.208 306.901 211.854 307.568 211.562C308.235 211.25 308.891 211.01 309.537 210.844C310.203 210.656 310.891 210.521 311.599 210.438C312.308 210.354 313.068 210.312 313.881 210.312C314.86 210.312 315.787 210.385 316.662 210.531C317.537 210.656 318.328 210.854 319.037 211.125C319.766 211.396 320.433 211.74 321.037 212.156C321.641 212.552 322.172 213.01 322.631 213.531C323.568 212.927 324.453 212.427 325.287 212.031C326.12 211.615 326.943 211.292 327.756 211.062C328.568 210.833 329.391 210.656 330.224 210.531C331.058 210.385 331.964 210.312 332.943 210.312C334.693 210.312 336.245 210.552 337.599 211.031C338.974 211.49 340.11 212.167 341.006 213.062C341.901 213.958 342.578 215.073 343.037 216.406C343.516 217.719 343.756 219.229 343.756 220.938V242H338.881V221.531C338.881 220.51 338.745 219.583 338.474 218.75C338.203 217.917 337.776 217.208 337.193 216.625C336.631 216.042 335.922 215.594 335.068 215.281C334.214 214.969 333.224 214.812 332.099 214.812C331.37 214.812 330.703 214.844 330.099 214.906C329.516 214.969 328.943 215.062 328.381 215.188C327.839 215.312 327.276 215.469 326.693 215.656C326.131 215.844 325.464 216.094 324.693 216.406V242H319.818V221.406C319.818 220.344 319.693 219.396 319.443 218.562C319.193 217.708 318.787 217.01 318.224 216.469C317.662 215.906 316.953 215.49 316.099 215.219C315.245 214.948 314.224 214.812 313.037 214.812C312.266 214.812 311.568 214.844 310.943 214.906C310.339 214.969 309.756 215.052 309.193 215.156C308.651 215.26 308.099 215.417 307.537 215.625C306.974 215.833 306.328 216.094 305.599 216.406V242H300.756ZM348.431 226.375C348.431 223.771 348.764 221.448 349.431 219.406C350.097 217.365 351.024 215.667 352.212 214.312C353.42 212.938 354.816 211.896 356.399 211.188C358.003 210.479 359.701 210.125 361.493 210.125C363.368 210.125 365.045 210.396 366.524 210.938C368.003 211.458 369.253 212.26 370.274 213.344C371.295 214.406 372.066 215.719 372.587 217.281C373.128 218.823 373.399 220.625 373.399 222.688C373.399 223.104 373.399 223.458 373.399 223.75C373.399 224.021 373.399 224.312 373.399 224.625C373.399 224.938 373.389 225.26 373.368 225.594C373.347 225.906 373.316 226.208 373.274 226.5H353.306C353.306 228.458 353.545 230.167 354.024 231.625C354.524 233.083 355.222 234.281 356.118 235.219C357.014 236.156 358.066 236.854 359.274 237.312C360.503 237.75 361.868 237.969 363.368 237.969C364.264 237.969 365.108 237.927 365.899 237.844C366.712 237.76 367.503 237.646 368.274 237.5C369.045 237.333 369.816 237.125 370.587 236.875C371.358 236.625 372.128 236.323 372.899 235.969V240.344C372.045 240.719 371.233 241.031 370.462 241.281C369.691 241.51 368.91 241.708 368.118 241.875C367.326 242.042 366.493 242.167 365.618 242.25C364.743 242.333 363.795 242.375 362.774 242.375C360.608 242.375 358.639 242.062 356.868 241.438C355.097 240.792 353.576 239.823 352.306 238.531C351.056 237.219 350.097 235.552 349.431 233.531C348.764 231.49 348.431 229.104 348.431 226.375ZM353.493 222.594H368.212C368.212 221.219 368.066 220.01 367.774 218.969C367.483 217.906 367.035 217.021 366.431 216.312C365.826 215.604 365.087 215.083 364.212 214.75C363.337 214.396 362.347 214.219 361.243 214.219C360.264 214.219 359.347 214.417 358.493 214.812C357.639 215.188 356.858 215.74 356.149 216.469C355.441 217.198 354.858 218.083 354.399 219.125C353.962 220.167 353.66 221.323 353.493 222.594ZM378.168 242V197.656L383.012 197.25V222.812H385.856L396.262 210.719H402.293L390.137 224.219L403.387 242H397.293L386.293 227.031H383.012V242H378.168ZM403.156 233.938C403.156 232.562 403.447 231.312 404.031 230.188C404.635 229.062 405.52 228.073 406.687 227.219C407.874 226.365 409.353 225.708 411.124 225.25C412.895 224.771 414.958 224.531 417.312 224.531C417.874 224.531 418.312 224.531 418.624 224.531C418.937 224.531 419.26 224.531 419.593 224.531C419.947 224.531 420.322 224.542 420.718 224.562C421.135 224.583 421.572 224.594 422.031 224.594V221.188C422.031 220.167 421.885 219.25 421.593 218.438C421.301 217.625 420.864 216.958 420.281 216.438C419.697 215.896 418.947 215.49 418.031 215.219C417.114 214.948 416.062 214.812 414.874 214.812C414.145 214.812 413.406 214.854 412.656 214.938C411.906 215.021 411.156 215.146 410.406 215.312C409.676 215.479 408.916 215.698 408.124 215.969C407.333 216.219 406.531 216.51 405.718 216.844L404.687 212.75C405.666 212.333 406.593 211.969 407.468 211.656C408.343 211.323 409.208 211.062 410.062 210.875C410.916 210.667 411.791 210.521 412.687 210.438C413.583 210.354 414.541 210.312 415.562 210.312C417.353 210.312 418.947 210.542 420.343 211C421.739 211.438 422.906 212.083 423.843 212.938C424.781 213.792 425.489 214.854 425.968 216.125C426.468 217.375 426.718 218.792 426.718 220.375V242H422.156V239.812C421.385 240.292 420.645 240.698 419.937 241.031C419.249 241.344 418.541 241.604 417.812 241.812C417.083 242.021 416.322 242.167 415.531 242.25C414.76 242.333 413.874 242.375 412.874 242.375C411.374 242.375 410.031 242.177 408.843 241.781C407.656 241.365 406.635 240.792 405.781 240.062C404.926 239.312 404.27 238.417 403.812 237.375C403.374 236.312 403.156 235.167 403.156 233.938ZM408.281 233.562C408.281 234.25 408.395 234.885 408.624 235.469C408.853 236.031 409.208 236.521 409.687 236.938C410.166 237.333 410.749 237.635 411.437 237.844C412.145 238.052 412.968 238.156 413.906 238.156C414.676 238.156 415.416 238.115 416.124 238.031C416.833 237.948 417.51 237.812 418.156 237.625C418.822 237.417 419.478 237.177 420.124 236.906C420.77 236.635 421.406 236.302 422.031 235.906V228.562C421.989 228.562 421.635 228.552 420.968 228.531C420.322 228.51 419.801 228.49 419.406 228.469C419.031 228.448 418.656 228.438 418.281 228.438C417.926 228.438 417.562 228.438 417.187 228.438C415.603 228.438 414.228 228.562 413.062 228.812C411.916 229.062 410.989 229.427 410.281 229.906C409.593 230.365 409.083 230.906 408.749 231.531C408.437 232.156 408.281 232.833 408.281 233.562ZM431.393 227.156C431.393 224.51 431.778 222.135 432.549 220.031C433.32 217.906 434.403 216.135 435.799 214.719C437.216 213.281 438.883 212.188 440.799 211.438C442.737 210.688 444.851 210.312 447.143 210.312C447.706 210.312 448.226 210.323 448.706 210.344C449.206 210.365 449.664 210.406 450.081 210.469C450.518 210.531 450.935 210.615 451.331 210.719C451.747 210.802 452.122 210.906 452.456 211.031V197.656L457.331 197.25V242H452.581V239.938C452.018 240.312 451.424 240.656 450.799 240.969C450.195 241.281 449.549 241.542 448.862 241.75C448.195 241.958 447.497 242.115 446.768 242.219C446.039 242.323 445.31 242.375 444.581 242.375C442.664 242.375 440.903 242.052 439.299 241.406C437.716 240.74 436.331 239.771 435.143 238.5C433.976 237.208 433.06 235.604 432.393 233.688C431.726 231.771 431.393 229.594 431.393 227.156ZM436.456 226.719C436.456 228.552 436.674 230.188 437.112 231.625C437.57 233.042 438.206 234.219 439.018 235.156C439.831 236.094 440.799 236.802 441.924 237.281C443.07 237.74 444.32 237.969 445.674 237.969C446.362 237.969 446.997 237.927 447.581 237.844C448.185 237.76 448.747 237.646 449.268 237.5C449.81 237.333 450.341 237.125 450.862 236.875C451.383 236.625 451.914 236.323 452.456 235.969V215.125C451.935 215.042 451.456 214.969 451.018 214.906C450.581 214.844 450.122 214.792 449.643 214.75C449.185 214.708 448.716 214.677 448.237 214.656C447.778 214.615 447.289 214.594 446.768 214.594C445.185 214.594 443.758 214.865 442.487 215.406C441.237 215.948 440.153 216.74 439.237 217.781C438.32 218.823 437.622 220.104 437.143 221.625C436.685 223.125 436.456 224.823 436.456 226.719ZM462.443 226.375C462.443 223.771 462.776 221.448 463.443 219.406C464.11 217.365 465.037 215.667 466.224 214.312C467.433 212.938 468.828 211.896 470.412 211.188C472.016 210.479 473.714 210.125 475.506 210.125C477.381 210.125 479.058 210.396 480.537 210.938C482.016 211.458 483.266 212.26 484.287 213.344C485.308 214.406 486.078 215.719 486.599 217.281C487.141 218.823 487.412 220.625 487.412 222.688C487.412 223.104 487.412 223.458 487.412 223.75C487.412 224.021 487.412 224.312 487.412 224.625C487.412 224.938 487.401 225.26 487.381 225.594C487.36 225.906 487.328 226.208 487.287 226.5H467.318C467.318 228.458 467.558 230.167 468.037 231.625C468.537 233.083 469.235 234.281 470.131 235.219C471.026 236.156 472.078 236.854 473.287 237.312C474.516 237.75 475.881 237.969 477.381 237.969C478.276 237.969 479.12 237.927 479.912 237.844C480.724 237.76 481.516 237.646 482.287 237.5C483.058 237.333 483.828 237.125 484.599 236.875C485.37 236.625 486.141 236.323 486.912 235.969V240.344C486.058 240.719 485.245 241.031 484.474 241.281C483.703 241.51 482.922 241.708 482.131 241.875C481.339 242.042 480.506 242.167 479.631 242.25C478.756 242.333 477.808 242.375 476.787 242.375C474.62 242.375 472.651 242.062 470.881 241.438C469.11 240.792 467.589 239.823 466.318 238.531C465.068 237.219 464.11 235.552 463.443 233.531C462.776 231.49 462.443 229.104 462.443 226.375ZM467.506 222.594H482.224C482.224 221.219 482.078 220.01 481.787 218.969C481.495 217.906 481.047 217.021 480.443 216.312C479.839 215.604 479.099 215.083 478.224 214.75C477.349 214.396 476.36 214.219 475.256 214.219C474.276 214.219 473.36 214.417 472.506 214.812C471.651 215.188 470.87 215.74 470.162 216.469C469.453 217.198 468.87 218.083 468.412 219.125C467.974 220.167 467.672 221.323 467.506 222.594ZM492.181 242V210.906L496.962 210.5V214.156C497.566 213.469 498.139 212.885 498.681 212.406C499.243 211.906 499.795 211.51 500.337 211.219C500.878 210.927 501.42 210.708 501.962 210.562C502.524 210.396 503.076 210.312 503.618 210.312C503.951 210.312 504.264 210.323 504.556 210.344C504.868 210.365 505.16 210.385 505.431 210.406C505.722 210.427 506.014 210.479 506.306 210.562C506.618 210.625 506.941 210.698 507.274 210.781L506.712 215.562C506.378 215.479 506.056 215.406 505.743 215.344C505.451 215.281 505.16 215.229 504.868 215.188C504.597 215.146 504.316 215.115 504.024 215.094C503.753 215.073 503.451 215.062 503.118 215.062C502.597 215.062 502.087 215.125 501.587 215.25C501.108 215.375 500.628 215.573 500.149 215.844C499.691 216.094 499.201 216.427 498.681 216.844C498.181 217.24 497.628 217.729 497.024 218.312V242H492.181Z" fill="#154273"/>
</svg>
